<?xml version="1.0" encoding="utf-8"?>
<!-- Generator: Adobe Illustrator 25.0.0, SVG Export Plug-In . SVG Version: 6.00 Build 0)  -->
<svg version="1.1" id="Layer_1" xmlns="http://www.w3.org/2000/svg" xmlns:xlink="http://www.w3.org/1999/xlink" x="0px" y="0px"
	 viewBox="0 0 512 512" style="enable-background:new 0 0 512 512;" xml:space="preserve">
<style type="text/css">
	.st0{fill:none;stroke:#0D863D;stroke-width:15;stroke-miterlimit:10;}
	.st1{fill:none;stroke:#0D863D;stroke-width:8;stroke-miterlimit:10;}
	.st2{fill:#0D863D;}
	.st3{fill:none;stroke:#0D863D;stroke-miterlimit:10;}
	.st4{fill:none;stroke:#0D863D;stroke-width:4;stroke-miterlimit:10;}
	.st5{fill:none;stroke:#0D863D;stroke-width:15;stroke-linecap:round;stroke-linejoin:round;stroke-miterlimit:10;}
	.st6{fill:url(#SVGID_1_);}
	.st7{fill:url(#SVGID_2_);}
	.st8{fill:url(#SVGID_3_);}
	.st9{fill:url(#SVGID_4_);}
	.st10{fill:url(#SVGID_5_);}
	.st11{fill:url(#SVGID_6_);}
	.st12{fill:url(#SVGID_7_);}
	.st13{fill:url(#SVGID_8_);}
	.st14{fill:url(#SVGID_9_);}
	.st15{fill:url(#SVGID_10_);}
	.st16{fill:#13C670;}
	.st17{fill:url(#SVGID_11_);}
	.st18{fill:#206529;}
	.st19{fill:#195521;}
	.st20{fill:url(#SVGID_12_);}
	.st21{fill:url(#SVGID_13_);}
	.st22{fill:url(#SVGID_14_);}
	.st23{fill:url(#SVGID_15_);}
	.st24{fill:url(#SVGID_16_);}
	.st25{fill:url(#SVGID_17_);}
	.st26{fill:url(#SVGID_18_);}
	.st27{fill:url(#SVGID_19_);}
	.st28{fill:url(#SVGID_20_);}
	.st29{fill:url(#SVGID_21_);}
	.st30{fill:url(#SVGID_22_);}
	.st31{fill:url(#SVGID_23_);}
	.st32{fill:url(#SVGID_24_);}
</style>
<path class="st0" d="M422.9,366.6H88.8c-14.3,0-25.9-11.7-25.9-25.9v-169c0-14.3,11.7-25.9,25.9-25.9h334.1
	c14.3,0,25.9,11.7,25.9,25.9v169C448.8,354.9,437.2,366.6,422.9,366.6z"/>
<g>
	<path class="st1" d="M147.8,222.5c0,12.5-9.2,22.7-20.6,22.7s-20.6-10.2-20.6-22.7c0-19.9,9.2-26.2,20.6-26.2
		S147.8,202.6,147.8,222.5z"/>
	<path class="st1" d="M163,275.1v28.6H91v-28.6c0-10.8,8.8-19.6,19.6-19.6h6.8c2.4,2.6,5.8,4.2,9.6,4.2c3.8,0,7.2-1.6,10.2-4.2h6.8
		C154.2,255.5,163,264.3,163,275.1z"/>
</g>
<rect x="64.2" y="329.6" class="st1" width="382.7" height="2.2"/>
<g>
	<g>
		<rect x="411" y="298" class="st2" width="5.1" height="4.9"/>
		<path class="st2" d="M380.4,194.6c0,7.1,0,27.4,0,34.5c7.7,0,28,0,35.7,0c0-7.1,0-27.4,0-34.5
			C416.1,194.6,391.3,194.6,380.4,194.6z M411,224.1c-8.9,0-16.5,0-25.5,0c0-8.6,0-16,0-24.6c9,0,16.6,0,25.5,0
			C411,199.5,411,215.5,411,224.1z"/>
		<rect x="405.9" y="258.6" class="st2" width="5.1" height="4.9"/>
		<path class="st2" d="M405.9,238.9v4.9h5.1v4.9h-5.1v4.9h5.1v4.9h5.1c0-12,0-7.7,0-19.7C412.5,238.9,409.5,238.9,405.9,238.9z"/>
		<path class="st2" d="M400.8,243.8v-4.9h-5.1v4.9h-5.1v4.9c5.7,0,9.6,0,15.3,0v-4.9H400.8z"/>
		<rect x="395.7" y="253.7" class="st2" width="5.1" height="4.9"/>
		<path class="st2" d="M390.6,204.5c0,5.5,0,9.3,0,14.8c5.2,0,9.7,0,15.3,0c0-5.5,0-9.3,0-14.8C400.2,204.5,396.3,204.5,390.6,204.5
			z"/>
		<path class="st2" d="M395.7,283.2h-5.1c0,5.5,0,9.3,0,14.8h5.1v4.9h5.1v4.9h5.1c0-3.5,0-6.4,0-9.8h-5.1v-4.9h-5.1
			C395.7,289.6,395.7,286.7,395.7,283.2z"/>
		<path class="st2" d="M385.5,278.3c3.6,0,6.6,0,10.2,0v4.9h5.1c0,3.5,0,6.4,0,9.8c3.6,0,6.6,0,10.2,0c0-5.3,0-9.5,0-14.8
			c-3.6,0-6.6,0-10.2,0v-4.9h-5.1c0-3.5,0-6.4,0-9.8h-5.1c0-5.5,0-9.3,0-14.8h-5.1C385.5,258.2,385.5,268.8,385.5,278.3z"/>
		<path class="st2" d="M385.5,288.1h-5.1c0,3.5,0,6.4,0,9.8c-3.6,0-6.6,0-10.2,0c0-5.5,0-9.3,0-14.8H365c0,3.5,0,6.4,0,9.8
			c-3.6,0-6.6,0-10.2,0v4.9c3.6,0,6.6,0,10.2,0v4.9c3.6,0,6.6,0,10.2,0v4.9c5.2,0,9.7,0,15.3,0c0-3.5,0-6.4,0-9.8h-5.1
			C385.5,294.5,385.5,291.6,385.5,288.1z"/>
		<rect x="380.4" y="238.9" class="st2" width="5.1" height="4.9"/>
		<rect x="375.2" y="248.8" class="st2" width="5.1" height="4.9"/>
		<path class="st2" d="M370.1,199.5c-7.2,0-13.4,0-20.4,0v-4.9h-5.1c0,3.5,0,6.4,0,9.8c3.6,0,6.6,0,10.2,0v4.9c3.6,0,6.6,0,10.2,0
			c0,3.4,0,6.4,0,9.8h5.1C370.1,207.2,370.1,211.5,370.1,199.5z"/>
		<path class="st2" d="M359.9,278.3h5.1c0-3.4,0-6.4,0-9.8c5.7,0,9.6,0,15.3,0c0-3.5,0-6.4,0-9.8h-5.1v4.9c-3.6,0-6.6,0-10.2,0
			c0-5.5,0-9.3,0-14.8h-5.1C359.9,258.2,359.9,268.8,359.9,278.3z"/>
		<path class="st2" d="M349.7,302.9h-5.1v4.9c5.7,0,9.6,0,15.3,0v-4.9h-5.1V298h-5.1V302.9z"/>
		<path class="st2" d="M349.7,278.3c0-3.4,0-6.4,0-9.8h-5.1c0,5.5,0,9.3,0,14.8c3.6,0,6.6,0,10.2,0v4.9h5.1c0-3.5,0-6.4,0-9.8
			C356.4,278.3,353.3,278.3,349.7,278.3z"/>
		<path class="st2" d="M349.7,243.8h-5.1v4.9c3.6,0,6.6,0,10.2,0c0-3.4,0-6.4,0-9.8c3.6,0,6.6,0,10.2,0c0,3.4,0,6.4,0,9.8h5.1
			c0-3.4,0-6.4,0-9.8h5.1c0-5.3,0-9.5,0-14.8c-3.6,0-6.6,0-10.2,0v-4.9h-5.1c0,3.5,0,6.4,0,9.8h5.1v4.9h-5.1v-4.9h-5.1v4.9h-5.1
			v-4.9h-5.1c0,3.5,0,6.4,0,9.8h5.1V243.8z"/>
		<rect x="349.7" y="219.2" class="st2" width="5.1" height="4.9"/>
		<path class="st2" d="M349.7,288.1h-5.1c0,3.5,0,6.4,0,9.8h5.1C349.7,294.5,349.7,291.6,349.7,288.1z"/>
		<rect x="344.6" y="209.4" class="st2" width="5.1" height="4.9"/>
		<path class="st2" d="M344.6,258.6h5.1v-4.9c-3.6,0-6.6,0-10.2,0v4.9h-5.1v-4.9h5.1v-4.9h-5.1v-4.9c3.6,0,6.6,0,10.2,0v-4.9
			c-5.7,0-9.6,0-15.3,0v4.9h-5.1v4.9h5.1v4.9c-3.6,0-6.6,0-10.2,0v4.9h5.1v4.9c7,0,13.4,0,20.4,0V258.6z"/>
		<path class="st2" d="M303.8,273.4c0,7.1,0,27.4,0,34.5c11,0,24.7,0,35.7,0c0-7.1,0-27.4,0-34.5
			C328.5,273.4,314.8,273.4,303.8,273.4z M334.4,302.9c-9.1,0-16.6,0-25.5,0c0-8.6,0-16,0-24.6c8.9,0,16.4,0,25.5,0
			C334.4,278.3,334.4,294.3,334.4,302.9z"/>
		<path class="st2" d="M314,283.2c0,5.5,0,9.3,0,14.8c5.7,0,9.6,0,15.3,0c0-5.5,0-9.3,0-14.8C323.6,283.2,319.7,283.2,314,283.2z"/>
		<path class="st2" d="M314,238.9v4.9c3.6,0,6.6,0,10.2,0v-4.9C320.6,238.9,317.6,238.9,314,238.9z"/>
		<path class="st2" d="M329.3,219.2c0-5.5,0-9.3,0-14.8c-5.7,0-9.6,0-15.3,0c0,5.5,0,9.3,0,14.8
			C319.7,219.2,323.6,219.2,329.3,219.2z"/>
		<rect x="308.9" y="258.6" class="st2" width="5.1" height="4.9"/>
		<rect x="308.9" y="248.8" class="st2" width="5.1" height="4.9"/>
		<path class="st2" d="M339.5,229.1c0-7.1,0-27.4,0-34.5c-11,0-24.8,0-35.7,0c0,7.1,0,27.4,0,34.5
			C314.8,229.1,328.5,229.1,339.5,229.1z M308.9,199.5c8.9,0,16.4,0,25.5,0c0,8.6,0,16,0,24.6c-9.1,0-16.6,0-25.5,0
			C308.9,224.1,308.9,208.2,308.9,199.5z"/>
		<rect x="303.8" y="253.7" class="st2" width="5.1" height="4.9"/>
		<rect x="303.8" y="238.9" class="st2" width="5.1" height="4.9"/>
	</g>
</g>
<rect x="182.4" y="201.8" class="st2" width="91.3" height="15.5"/>
<rect x="182.4" y="230.2" class="st2" width="97.5" height="15.5"/>
<rect x="182.4" y="261.6" class="st2" width="78.6" height="15.5"/>
<rect x="182.4" y="291.1" class="st2" width="97.2" height="15.5"/>
<g>
	<circle class="st3" cx="182.7" cy="173.2" r="10.1"/>
	<ellipse class="st3" cx="182.7" cy="173.2" rx="10.1" ry="8.2"/>
	<ellipse class="st3" cx="182.7" cy="173.2" rx="10.1" ry="5.4"/>
	<ellipse class="st3" cx="182.7" cy="173.2" rx="10.1" ry="2.2"/>
	<ellipse class="st3" cx="182.7" cy="173.2" rx="6.3" ry="10.1"/>
	<ellipse class="st3" cx="182.7" cy="173.2" rx="2.5" ry="10.1"/>
</g>
<g>
	<path class="st2" d="M203,167.8c0.1,0,0.3,0,0.4,0.1c0.1,0.1,0.2,0.1,0.4,0.2l8.4,7.4v-7.2c0-0.4,0.3-0.6,0.8-0.6s0.8,0.2,0.8,0.6
		v8.7c0,0.4-0.3,0.6-0.8,0.6c-0.2,0-0.3,0-0.4-0.1c-0.1-0.1-0.2-0.1-0.3-0.2l-8.4-7.4v7.2c0,0.4-0.3,0.6-0.8,0.6
		c-0.5,0-0.7-0.2-0.7-0.6v-8.6C202.3,168,202.5,167.8,203,167.8z"/>
	<path class="st2" d="M219.1,177.6c-2,0-3-0.6-3-1.9v-0.8c0-1.2,1-1.8,3-1.8h6v-0.2c0-0.7-0.6-1-1.7-1h-2c-0.5,0-0.7-0.2-0.7-0.5
		c0-0.4,0.2-0.6,0.7-0.6h2c2.1,0,3.2,0.7,3.2,2.1v2.7c0,1.3-1,2-3.1,2H219.1z M223.4,176.5c1.1,0,1.7-0.3,1.7-0.9V174h-5.8
		c-1.1,0-1.6,0.3-1.6,0.9v0.7c0,0.6,0.5,0.9,1.6,0.9H223.4z"/>
	<path class="st2" d="M231.4,171.9v5.1c0,0.4-0.2,0.6-0.7,0.6c-0.5,0-0.8-0.2-0.8-0.6v-5.1h-0.6c-0.5,0-0.7-0.2-0.7-0.5
		c0-0.4,0.2-0.5,0.7-0.5h0.6v-1.3c0-0.4,0.2-0.6,0.7-0.6c0.5,0,0.8,0.2,0.8,0.6v1.3h2.4c0.5,0,0.7,0.2,0.7,0.5
		c0,0.4-0.2,0.5-0.7,0.5H231.4z"/>
	<path class="st2" d="M238.2,169c0,0.4-0.3,0.7-0.8,0.7s-0.8-0.2-0.8-0.7c0-0.4,0.3-0.7,0.8-0.7S238.2,168.6,238.2,169z
		 M236.7,171.3c0-0.4,0.2-0.6,0.7-0.6s0.7,0.2,0.7,0.6v5.8c0,0.4-0.2,0.6-0.7,0.6s-0.7-0.2-0.7-0.6V171.3z"/>
	<path class="st2" d="M244.4,177.6c-2.4,0-3.6-0.7-3.6-2.2V173c0-1.5,1.2-2.2,3.6-2.2h2.7c2.4,0,3.6,0.7,3.6,2.2v2.4
		c0,1.5-1.2,2.2-3.6,2.2H244.4z M249.3,173c0-0.7-0.7-1.1-2.1-1.1h-2.8c-1.4,0-2.1,0.4-2.1,1.1v2.4c0,0.7,0.7,1.1,2.1,1.1h2.8
		c1.4,0,2.1-0.4,2.1-1.1V173z"/>
	<path class="st2" d="M261.8,173c0-0.7-0.7-1.1-2.1-1.1h-2.8c-1.4,0-2.1,0.4-2.1,1.1v4.1c0,0.4-0.2,0.6-0.7,0.6
		c-0.5,0-0.7-0.2-0.7-0.6V173c0-1.5,1.2-2.2,3.6-2.2h2.7c2.4,0,3.6,0.7,3.6,2.2v4.1c0,0.4-0.2,0.6-0.7,0.6c-0.5,0-0.7-0.2-0.7-0.6
		V173z"/>
	<path class="st2" d="M268.5,177.6c-2,0-3-0.6-3-1.9v-0.8c0-1.2,1-1.8,3-1.8h6v-0.2c0-0.7-0.6-1-1.7-1h-2c-0.5,0-0.7-0.2-0.7-0.5
		c0-0.4,0.2-0.6,0.7-0.6h2c2.1,0,3.2,0.7,3.2,2.1v2.7c0,1.3-1,2-3.1,2H268.5z M272.8,176.5c1.1,0,1.7-0.3,1.7-0.9V174h-5.8
		c-1.1,0-1.6,0.3-1.6,0.9v0.7c0,0.6,0.5,0.9,1.6,0.9H272.8z"/>
	<path class="st2" d="M278.6,168.2c0-0.4,0.2-0.6,0.7-0.6s0.7,0.2,0.7,0.6v8.8c0,0.4-0.2,0.6-0.7,0.6s-0.7-0.2-0.7-0.6V168.2z"/>
	<path class="st2" d="M292.1,177.6c-2.7,0-4.1-0.9-4.1-2.7v-4.4c0-1.8,1.3-2.6,4-2.6h5.4c0.5,0,0.7,0.2,0.7,0.6s-0.2,0.6-0.7,0.6
		H292c-1.7,0-2.5,0.5-2.5,1.5v4.3c0,1.1,0.9,1.6,2.7,1.6h5.2c0.5,0,0.7,0.2,0.7,0.6c0,0.4-0.2,0.6-0.7,0.6H292.1z"/>
	<path class="st2" d="M302.9,177.6c-2,0-3-0.6-3-1.9v-0.8c0-1.2,1-1.8,3-1.8h6v-0.2c0-0.7-0.6-1-1.7-1h-2c-0.5,0-0.7-0.2-0.7-0.5
		c0-0.4,0.2-0.6,0.7-0.6h2c2.1,0,3.2,0.7,3.2,2.1v2.7c0,1.3-1,2-3.1,2H302.9z M307.1,176.5c1.1,0,1.7-0.3,1.7-0.9V174H303
		c-1.1,0-1.6,0.3-1.6,0.9v0.7c0,0.6,0.5,0.9,1.6,0.9H307.1z"/>
	<path class="st2" d="M312.9,173c0-1.5,1.2-2.2,3.6-2.2h1.1c0.5,0,0.7,0.2,0.7,0.6s-0.2,0.6-0.7,0.6h-1.1c-1.4,0-2.1,0.3-2.1,1v4.1
		c0,0.4-0.2,0.6-0.7,0.6c-0.5,0-0.7-0.2-0.7-0.6V173z"/>
	<path class="st2" d="M323.9,177.6c-2.4,0-3.6-0.7-3.6-2.2V173c0-1.5,1.2-2.2,3.6-2.2h4.9v-2.6c0-0.4,0.3-0.6,0.8-0.6
		c0.5,0,0.7,0.2,0.7,0.6v7.2c0,1.5-1.2,2.2-3.6,2.2H323.9z M326.8,176.4c1.4,0,2.1-0.4,2.1-1.1v-3.5h-5c-1.4,0-2.1,0.4-2.1,1.1v2.4
		c0,0.7,0.7,1.1,2.1,1.1H326.8z"/>
</g>
</svg>
