<?xml version="1.0" encoding="utf-8"?>
<!-- Generator: Adobe Illustrator 25.0.0, SVG Export Plug-In . SVG Version: 6.00 Build 0)  -->
<svg version="1.1" id="Layer_1" xmlns="http://www.w3.org/2000/svg" xmlns:xlink="http://www.w3.org/1999/xlink" x="0px" y="0px"
	 viewBox="0 0 1377.9 344.8" style="enable-background:new 0 0 1377.9 344.8;" xml:space="preserve">
<style type="text/css">
	.st0{fill:#13C670;}
	.st1{fill:url(#SVGID_1_);}
	.st2{fill:#206529;}
	.st3{fill:#195521;}
	.st4{fill:#0E181E;}
	.st5{fill:url(#SVGID_2_);}
	.st6{fill:url(#SVGID_3_);}
	.st7{fill:url(#SVGID_4_);}
	.st8{fill:url(#SVGID_5_);}
	.st9{fill:url(#SVGID_6_);}
	.st10{fill:url(#SVGID_7_);}
	.st11{fill:url(#SVGID_8_);}
	.st12{fill:url(#SVGID_9_);}
	.st13{fill:url(#SVGID_10_);}
	.st14{fill:url(#SVGID_11_);}
	.st15{fill:url(#SVGID_12_);}
	.st16{fill:url(#SVGID_13_);}
	.st17{fill:url(#SVGID_14_);}
	.st18{fill:url(#SVGID_15_);}
	.st19{fill:url(#SVGID_16_);}
	.st20{fill:url(#SVGID_17_);}
	.st21{fill:url(#SVGID_18_);}
	.st22{fill:url(#SVGID_19_);}
	.st23{fill:url(#SVGID_20_);}
	.st24{fill:url(#SVGID_21_);}
</style>
<g>
	<polygon class="st0" points="42.8,295.5 197.5,45.4 197.5,225 	"/>
	
		<linearGradient id="SVGID_1_" gradientUnits="userSpaceOnUse" x1="-880.6276" y1="279.5204" x2="-997.7542" y2="58.7209" gradientTransform="matrix(-1 0 0 -1 -708.5161 346)">
		<stop  offset="0" style="stop-color:#108C42"/>
		<stop  offset="1" style="stop-color:#0C843B"/>
	</linearGradient>
	<polygon class="st1" points="352.3,295.5 197.5,45.4 197.5,225 	"/>
	<polygon class="st2" points="352.3,295.5 197.5,225 197.5,251.6 	"/>
	<polygon class="st3" points="42.8,295.5 197.5,225 197.5,251.6 	"/>
</g>
<g>
	<path class="st4" d="M450.6,166.2h-29.5l-4.5,23.4h-28.7l29.3-129.5h37.1l30.1,129.5h-29.3L450.6,166.2z M446.4,145.1l-10.6-54.8
		l-10.6,54.8H446.4z"/>
	<path class="st4" d="M575.3,60.1v129.5h-26.1L520.9,112v77.6h-26.5V60.1h26.3l27.9,77.4V60.1H575.3z"/>
	<path class="st4" d="M648,166.2h-29.5l-4.5,23.4h-28.7l29.3-129.5h37.1l30.1,129.5h-29.3L648,166.2z M643.7,145.1l-10.6-54.8
		l-10.6,54.8H643.7z"/>
	<path class="st4" d="M758,168.3v21.4h-66.2V60.1h28.9v108.2L758,168.3L758,168.3z"/>
	<path class="st4" d="M819.7,60.1c18.5,0,25.7,8.6,25.7,22.4V167c0,14.1-7.1,22.6-25.7,22.6h-27.3c-18.5,0-25.9-8.6-25.9-22.6V82.5
		c0-13.8,7.3-22.4,25.9-22.4H819.7z M816.2,86.6c0-3.7-1.4-5.1-5.3-5.1h-9.8c-4.1,0-5.5,1.4-5.5,5.1v76.6c0,3.7,1.4,5.1,5.5,5.1h9.8
		c3.9,0,5.3-1.4,5.3-5.1V86.6z"/>
	<path class="st4" d="M910.3,102.1V85.2c0-3.7-1.4-5.1-5.5-5.1h-8.4c-4.1,0-5.5,1.4-5.5,5.1v79.4c0,3.9,1.4,5.1,5.5,5.1h8.4
		c4.1,0,5.5-1.2,5.5-5.1v-25.3h-10.2V120h39.3v47.3c0,13.9-7.3,22.4-25.7,22.4h-26.3c-18.5,0-25.7-8.6-25.7-22.4V82.5
		c0-13.8,7.1-22.4,25.7-22.4h26.3c18.3,0,25.7,8.6,25.7,22.4v19.6H910.3z"/>
</g>
<g>
	<path class="st4" d="M1021.2,140.7c0-3.7-1.4-4.9-5.5-4.9h-17.9c-17.9,0-24-9-24-22.8V83.4c0-13.8,7.1-22.4,25.7-22.4h24.8
		c18.5,0,25.7,8.6,25.7,22.4v16.9h-29.1V87.5c0-3.7-1.4-5.1-5.5-5.1h-6.9c-4.1,0-5.5,1.4-5.5,5.1v22.8c0,3.7,1.4,4.9,5.5,4.9h17.5
		c18.1,0,24.4,8.4,24.4,22.2V168c0,14.1-7.1,22.6-25.7,22.6h-24.6c-18.5,0-25.9-8.6-25.9-22.6v-16.7h29.1v12.8
		c0,3.7,1.4,5.1,5.5,5.1h6.9c4.1,0,5.5-1.4,5.5-5.1L1021.2,140.7L1021.2,140.7z"/>
	<path class="st4" d="M1113.5,106.5V86.1c0-3.7-1.4-5.1-5.3-5.1h-8.4c-4.1,0-5.5,1.4-5.5,5.1v79.4c0,3.9,1.4,5.1,5.5,5.1h8.4
		c3.9,0,5.3-1.2,5.3-5.1v-19.8h29.3v22.4c0,13.9-7.3,22.4-25.9,22.4h-26.1c-18.5,0-25.7-8.6-25.7-22.4V83.4
		c0-13.8,7.1-22.4,25.7-22.4h26.1c18.5,0,25.9,8.6,25.9,22.4v23L1113.5,106.5L1113.5,106.5z"/>
	<path class="st4" d="M1212.5,167.2H1183l-4.5,23.4h-28.7L1179.1,61h37.1l30.1,129.5H1217L1212.5,167.2z M1208.2,146l-10.6-54.8
		L1187,146H1208.2z"/>
	<path class="st4" d="M1337.1,61v129.5H1311l-28.3-77.6v77.6h-26.5V61h26.3l27.9,77.4V61H1337.1z"/>
</g>
<g>
	<g>
		
			<linearGradient id="SVGID_2_" gradientUnits="userSpaceOnUse" x1="531.1478" y1="117.5" x2="555.1375" y2="117.5" gradientTransform="matrix(1 0 0 -1 0 346)">
			<stop  offset="0" style="stop-color:#108C42"/>
			<stop  offset="1" style="stop-color:#0C843B"/>
		</linearGradient>
		<path class="st5" d="M555.1,226.5c0,0.4-0.4,0.7-0.8,0.6H554l-9.6-1.9c0,0,0,0-0.1,0l-3.9-0.9l-2.9,0.1l-2,0.3
			c-1.1,0.2-2.1,0.8-2.7,1.8l-0.1,0.1c-0.1,0.1-0.1,0.2,0,0.3l0.1,0.2c0.4,1,1.2,1.8,2.3,2.1c0.4,0.1,0.8,0.3,1.2,0.5
			s0.7,0.4,1.1,0.7l0.4,0.3c0.8,0.6,1.4,1.3,1.9,2.1c0.1,0.1,0.1,0.2,0.2,0.2c0.2,0.3,0.1,0.8-0.3,1c-0.1,0.1-0.2,0.1-0.3,0.1
			s-0.1,0-0.2,0H539c-0.2,0-0.3-0.2-0.4-0.3c-0.3-0.6-0.8-1.1-1.2-1.6c-0.1-0.1-0.3-0.3-0.4-0.4l-0.4-0.3c-0.3-0.2-0.5-0.4-0.9-0.5
			c-0.3-0.2-0.6-0.3-0.9-0.4c-1.5-0.5-2.6-1.5-3.2-3l-0.1-0.2c-0.2-0.5-0.2-1.1,0.2-1.6l0.1-0.1c0.8-1.3,2.2-2.2,3.7-2.4l2.1-0.3
			h0.1l3.1-0.1c0.1,0,0.1,0,0.2,0l4,0.9l9.5,1.9l0.4,0.1C554.9,225.8,555.2,226.1,555.1,226.5z"/>
		
			<linearGradient id="SVGID_3_" gradientUnits="userSpaceOnUse" x1="550.3485" y1="131.2906" x2="567.6411" y2="131.2906" gradientTransform="matrix(1 0 0 -1 0 346)">
			<stop  offset="0" style="stop-color:#108C42"/>
			<stop  offset="1" style="stop-color:#0C843B"/>
		</linearGradient>
		<path class="st6" d="M567.5,223.9c-0.2,0.4-0.6,0.5-1,0.3c-0.8-0.5-1.6-1-2.3-1.7c-1.7-1.5-3-3.4-3.8-5.6l-0.1-0.4v-0.1l-0.5-3.6
			c-0.3-1.7-0.8-3.3-1.7-4.7c-0.3-0.5-0.6-0.9-1.1-1.2c-0.4-0.3-0.9-0.6-1.4-0.8l-0.6-0.2c-0.3-0.1-0.6-0.1-0.9,0l-0.3,0.2
			c-0.7,0.4-1.2,1-1.4,1.8l-0.1,0.2c-0.3,1.4-0.5,2.8-0.3,4.2l0.3,3.2c0.1,0.8,0.2,1.6,0.4,2.4l0.9,4.3l0,0l0.2,1.3l0.2,0.8
			c0.1,0.4-0.2,0.8-0.6,0.8h-0.1c-0.3,0-0.6-0.2-0.7-0.6l-0.1-0.3l-0.3-1.7l-0.9-4.3c-0.2-0.9-0.3-1.7-0.4-2.6l-0.3-3.2
			c-0.1-1.6,0-3.2,0.4-4.7l0.1-0.2c0.3-1.2,1.1-2.1,2.1-2.7l0.4-0.2c0.6-0.3,1.4-0.4,2.1-0.1l0.6,0.2c0.7,0.2,1.3,0.6,1.8,1.1
			c0.5,0.4,1,1,1.4,1.6c1,1.6,1.6,3.4,1.9,5.2l0.5,3.5l0.1,0.3c1,2.7,2.9,5,5.5,6.5c0.1,0,0.1,0.1,0.2,0.1
			C567.7,223.2,567.7,223.6,567.5,223.9z"/>
	</g>
	
		<linearGradient id="SVGID_4_" gradientUnits="userSpaceOnUse" x1="537.0902" y1="116.842" x2="550.5839" y2="116.842" gradientTransform="matrix(1 0 0 -1 0 346)">
		<stop  offset="0" style="stop-color:#108C42"/>
		<stop  offset="1" style="stop-color:#0C843B"/>
	</linearGradient>
	<path class="st7" d="M549.9,232.4c-0.2,0-0.5-0.1-0.6-0.3c-4.3-6.4-11.2-4.4-11.2-4.4c-0.4,0.1-0.8-0.1-0.9-0.5
		c-0.1-0.4,0.1-0.8,0.5-0.9c0.1,0,2-0.6,4.6-0.3c2.4,0.3,5.7,1.5,8.3,5.3c0.2,0.3,0.1,0.8-0.2,1C550.1,232.4,550,232.4,549.9,232.4z
		"/>
	
		<linearGradient id="SVGID_5_" gradientUnits="userSpaceOnUse" x1="477.5494" y1="87.3" x2="585.7194" y2="87.3" gradientTransform="matrix(1 0 0 -1 0 346)">
		<stop  offset="0" style="stop-color:#108C42"/>
		<stop  offset="1" style="stop-color:#0C843B"/>
	</linearGradient>
	<path class="st8" d="M584.6,238.3c-0.6-0.7-1.1-1.5-1.4-2.3l-0.8-1.8c-1.3-2.8-3.1-5.2-5.4-7.3l-3.1-2.7l-2-0.7l-4.5-0.9l-4.2-0.7
		l-4.8,0.2l-5,1l-1,1.4l1,1.6l0.5,0.8c1.5,2.2,2.2,4.8,2.2,7.5v1.3c0,0.4-0.2,0.7-0.5,0.9s-0.7,0.3-1,0.2l-2-0.6l-2.5-0.1
		c-0.7,0-1.5-0.1-2.2-0.2l-2.3-0.4c-1.6-0.3-3.2-0.8-4.7-1.5l-0.5-0.2c-0.5-0.2-1-0.4-1.5-0.6h-0.1c-0.4-0.1-0.8-0.2-1.2-0.3
		c-1-0.2-1.9-0.3-2.9-0.3l0,0l-5-0.1l0,0l-1.2,0.1c-2.9,0.2-5.7,0.8-8.5,1.7l-0.3,0.1c-2.3,0.8-4.5,1.8-6.6,3l-1.9,1.1
		c-1.7,1-3.3,2.2-4.8,3.5l-1.7,1.5c-2.5,2.2-4.5,4.8-6,7.7l-0.4,0.8l-3.9,7.9l-0.7,1.7c-1,2.6-1.5,5.3-1.5,8c0,0.2,0,0.4,0,0.6
		l0.3,1.5c0,0.1,0,0.1,0,0.2v0.1v0.1c-0.1,0.3-0.4,0.5-0.7,0.5h-0.1c-2.7-0.2-4.5-1.3-5.4-3.2l-0.2,0.3c-0.1,0.2-0.2,0.3-0.4,0.4
		s-0.4,0.1-0.6,0c-0.1-0.1-2.5-1.1-3.5-4.7c-0.4,0.4-0.7,1-0.9,1.8c-0.2,1.1,0.1,2.2,1,3.5c0.2,0.3,0.2,0.7-0.1,0.9
		c-0.2,0.2-0.6,0.3-0.9,0.1l-3.4-2.4c0.1,1.1,0.3,2.7,0.9,4.3c1.2,3.7,3.4,5.8,6.5,6.3c3.9,0.5,6.6,0.5,8.5-0.2c0,0,0,0,0.1,0
		s0.1,0,0.2,0s0.1,0,0.2,0s0.1,0.1,0.2,0.1c0,0,0,0,0.1,0s0.1,0.1,0.1,0.1s0.1,0.1,0.1,0.2l0,0l0,0c0,0,0,0,0,0.1
		c2.6,8.2,8.9,11.1,9.4,11.3c3,0.8,8.5,0.4,9.5,0.4c0.2-0.1,0.5-0.1,0.8-0.1l4.3,1.1c2.4,0.6,4.9,0.6,7.3,0l4.4-1.1l1.1-0.5
		c0.5-0.2,1.1,0,1.4,0.4c0.3,0.4,0.3,1,0,1.4l-1.9,2.2l0.2,0.2h3c0.8,0,1.6-0.1,2.3-0.3l3.3-1.1c0.2,0,0.4-0.1,0.5,0l2.1,0.3
		c1.5,0.2,3,0,4.4-0.6l4.7-2l1.6-0.9c0.5-0.3,0.9-0.9,0.9-1.6c0-0.6-0.3-1.2-0.9-1.6l-1.3-0.8l0,0l-0.6-0.3c-2-0.9-4.2-1.3-6.4-1.1
		l-1.3,0.1c-0.6,0.1-1.1-0.3-1.2-0.8c-0.2-0.5,0.1-1.1,0.5-1.4l2-1.1l0,0l3.1-2.9c0.3-0.3,8.8-7,8.8-7l0,0l2.2-1.8l2.9-2.3l0,0
		l2.8-3c0,0,0,0,0-0.1l0,0l1.2-1.1c1.1-1,2-2.1,2.8-3.3l0.1-0.2c0.9-1.3,1.4-2.9,1.5-4.5l0,0l0,0c0-0.1,0-0.2,0.1-0.3l0.7-2.1
		l0.3-0.9c0.2-0.5,0.6-0.8,1.2-0.8l1.6,0.1c0.4,0,0.8,0,1.2-0.1c1.5-0.4,3-1.2,4.1-2.3l0.1-0.1c0-0.1,0.1-0.1,0.1-0.1l1.5-1
		c1-0.7,1.9-1.7,2.5-2.9l0.4-0.7l0.1-1c0-0.3,0.2-0.6,0.4-0.8s0.4-0.2,0.6-0.3l0.5-0.9v-2L584.6,238.3z M542,282.8
		c-0.1,0.3-0.4,0.5-0.7,0.5c-0.1,0-0.1,0-0.2,0c-0.4-0.1-0.6-0.5-0.5-0.9c0,0,1.4-4.7,1.3-9.8c-0.1-6.7-2.5-10.9-7.2-12.5
		c-4.7-1.7-9.6-0.5-14.6,3.5c-3.8,3.1-6.2,6.7-6.2,6.8c-0.2,0.3-0.7,0.4-1,0.2c-0.3-0.2-0.4-0.7-0.2-1c0.1-0.2,2.5-3.9,6.5-7.1
		c5.3-4.3,10.9-5.7,16-3.8c5.2,1.9,8.1,6.7,8.2,13.9C543.5,277.9,542.1,282.6,542,282.8z M575.8,236.8c-0.1,0.3-0.5,0.5-0.9,0.4
		c-0.3-0.1-1.1,0-1.7,0.1c-0.8,0.4-1.4,0.6-2.1,0.6c-1.3,0-2.3-0.8-2.7-1.3c-0.1-0.1-0.1-0.2-0.1-0.3c-0.1-0.8-1-1.5-1.4-1.7
		c-0.3-0.2-0.5-0.6-0.3-0.9c0.2-0.3,0.6-0.5,0.9-0.4c0.2,0,0.9-0.2,1.9-0.9c0.3-0.2,0.5-0.3,0.7-0.4c0.9-0.4,1.8-0.5,2.6-0.2
		c1.3,0.6,1.8,1.9,1.8,2s0,0.2,0,0.3c0,1.1,0.8,1.7,0.9,1.7C575.8,236,575.9,236.4,575.8,236.8z"/>
	
		<linearGradient id="SVGID_6_" gradientUnits="userSpaceOnUse" x1="491.0694" y1="74.5" x2="492.7035" y2="74.5" gradientTransform="matrix(1 0 0 -1 0 346)">
		<stop  offset="0" style="stop-color:#108C42"/>
		<stop  offset="1" style="stop-color:#0C843B"/>
	</linearGradient>
	<path class="st9" d="M492.7,271.4c0,0.1,0,0.1,0,0.2v0.1v0.1c-0.1,0.3-0.4,0.5-0.7,0.5h-0.1c-0.3,0-0.5-0.3-0.6-0.6l-0.2-1
		c0.3,0.1,0.6,0.1,1,0.1C492.4,270.9,492.6,271.1,492.7,271.4z"/>
	
		<linearGradient id="SVGID_7_" gradientUnits="userSpaceOnUse" x1="492.9982" y1="65.9" x2="494.4494" y2="65.9" gradientTransform="matrix(1 0 0 -1 0 346)">
		<stop  offset="0" style="stop-color:#108C42"/>
		<stop  offset="1" style="stop-color:#0C843B"/>
	</linearGradient>
	<path class="st10" d="M494.4,280c0,0.3-0.2,0.6-0.5,0.7c-0.2,0.1-0.5,0.2-0.7,0.2c-0.1-0.2-0.2-0.5-0.2-0.7
		c-0.1-0.4,0.1-0.8,0.4-0.9c0,0,0,0,0.1,0s0.1,0,0.2,0s0.1,0,0.2,0s0.1,0.1,0.2,0.1c0,0,0,0,0.1,0s0.1,0.1,0.1,0.1s0.1,0.1,0.1,0.2
		l0,0v0.1C494.4,279.9,494.4,279.9,494.4,280z"/>
</g>
<linearGradient id="SVGID_8_" gradientUnits="userSpaceOnUse" x1="942" y1="85.35" x2="981.5" y2="85.35" gradientTransform="matrix(1 0 0 -1 0 346)">
	<stop  offset="0" style="stop-color:#108C42"/>
	<stop  offset="1" style="stop-color:#0C843B"/>
</linearGradient>
<path class="st11" d="M981.5,236.3V285h-3.3c-0.5,0-1-0.1-1.3-0.3c-0.4-0.2-0.7-0.5-1-0.9l-28.2-36.7c0,0.6,0.1,1.1,0.1,1.7
	s0,1.1,0,1.5V285H942v-48.7h3.4c0.3,0,0.5,0,0.7,0.1c0.2,0,0.4,0.1,0.5,0.2c0.2,0.1,0.3,0.2,0.5,0.3s0.3,0.3,0.5,0.6l28.2,36.7
	c0-0.6-0.1-1.2-0.1-1.7s-0.1-1.1-0.1-1.6v-34.5L981.5,236.3L981.5,236.3z"/>
<linearGradient id="SVGID_9_" gradientUnits="userSpaceOnUse" x1="998" y1="85.35" x2="1028.0566" y2="85.35" gradientTransform="matrix(1 0 0 -1 0 346)">
	<stop  offset="0" style="stop-color:#108C42"/>
	<stop  offset="1" style="stop-color:#0C843B"/>
</linearGradient>
<path class="st12" d="M1028,279.6v5.4h-30v-48.7h30v5.4h-23.4v16.2h19v5.2h-19v16.6h23.4V279.6z"/>
<linearGradient id="SVGID_10_" gradientUnits="userSpaceOnUse" x1="1036.1001" y1="85.35" x2="1074.2487" y2="85.35" gradientTransform="matrix(1 0 0 -1 0 346)">
	<stop  offset="0" style="stop-color:#108C42"/>
	<stop  offset="1" style="stop-color:#0C843B"/>
</linearGradient>
<path class="st13" d="M1074.3,241.8h-15.8V285h-6.6v-43.2h-15.8v-5.5h38.1L1074.3,241.8L1074.3,241.8z"/>
<linearGradient id="SVGID_11_" gradientUnits="userSpaceOnUse" x1="1080.3958" y1="85.5" x2="1148.7024" y2="85.5" gradientTransform="matrix(1 0 0 -1 0 346)">
	<stop  offset="0" style="stop-color:#108C42"/>
	<stop  offset="1" style="stop-color:#0C843B"/>
</linearGradient>
<path class="st14" d="M1148.7,236.3l-15.2,48.7h-5.9l-12.3-37.2c-0.1-0.4-0.2-0.7-0.3-1.2c-0.1-0.4-0.2-0.8-0.3-1.3
	c-0.1,0.5-0.2,0.9-0.3,1.3c-0.1,0.4-0.2,0.8-0.3,1.2l-12.4,37.2h-5.9l-15.2-48.7h5.5c0.6,0,1.1,0.1,1.5,0.4s0.7,0.7,0.8,1.1
	l10.1,33.9c0.2,0.6,0.3,1.3,0.5,2c0.1,0.7,0.3,1.5,0.4,2.2c0.2-0.8,0.3-1.5,0.5-2.3s0.4-1.4,0.6-2l11.5-33.9
	c0.1-0.4,0.4-0.7,0.8-1.1c0.4-0.3,0.9-0.5,1.4-0.5h1.9c0.6,0,1.1,0.1,1.4,0.4s0.6,0.7,0.8,1.1l11.4,33.9c0.2,0.6,0.4,1.2,0.6,1.9
	c0.2,0.7,0.3,1.4,0.5,2.1c0.1-0.7,0.2-1.5,0.4-2.1c0.1-0.7,0.3-1.3,0.4-1.9l10.1-33.9c0.1-0.4,0.4-0.8,0.8-1.1s0.9-0.5,1.4-0.5h4.8
	V236.3z"/>
<linearGradient id="SVGID_12_" gradientUnits="userSpaceOnUse" x1="1156.3518" y1="85.35" x2="1204.3518" y2="85.35" gradientTransform="matrix(1 0 0 -1 0 346)">
	<stop  offset="0" style="stop-color:#108C42"/>
	<stop  offset="1" style="stop-color:#0C843B"/>
</linearGradient>
<path class="st15" d="M1204.4,260.7c0,3.6-0.6,7-1.7,10s-2.8,5.7-4.9,7.9c-2.1,2.2-4.6,3.9-7.6,5.1s-6.2,1.8-9.8,1.8
	c-3.6,0-6.8-0.6-9.8-1.8c-2.9-1.2-5.5-2.9-7.6-5.1s-3.7-4.8-4.9-7.9c-1.2-3-1.7-6.4-1.7-10s0.6-7,1.7-10c1.2-3,2.8-5.7,4.9-7.9
	s4.6-3.9,7.6-5.2c2.9-1.2,6.2-1.8,9.8-1.8c3.6,0,6.9,0.6,9.8,1.8c3,1.2,5.5,2.9,7.6,5.2c2.1,2.2,3.7,4.8,4.9,7.9
	S1204.4,257,1204.4,260.7z M1197.6,260.7c0-3-0.4-5.7-1.2-8.1s-2-4.4-3.5-6s-3.3-2.9-5.4-3.8s-4.5-1.3-7.1-1.3s-5,0.4-7.1,1.3
	s-3.9,2.1-5.5,3.8c-1.5,1.6-2.7,3.7-3.5,6c-0.8,2.4-1.2,5.1-1.2,8.1s0.4,5.7,1.2,8c0.8,2.4,2,4.4,3.5,6s3.3,2.9,5.5,3.8
	s4.5,1.3,7.1,1.3s5-0.4,7.1-1.3s3.9-2.1,5.4-3.8c1.5-1.6,2.7-3.6,3.5-6S1197.6,263.6,1197.6,260.7z"/>
<linearGradient id="SVGID_13_" gradientUnits="userSpaceOnUse" x1="1217.9001" y1="85.35" x2="1253.9" y2="85.35" gradientTransform="matrix(1 0 0 -1 0 346)">
	<stop  offset="0" style="stop-color:#108C42"/>
	<stop  offset="1" style="stop-color:#0C843B"/>
</linearGradient>
<path class="st16" d="M1253.9,285h-5.8c-1.2,0-2.1-0.5-2.7-1.4l-12.6-17.4c-0.4-0.5-0.8-0.9-1.2-1.2c-0.4-0.2-1.1-0.4-2.1-0.4h-5
	V285h-6.6v-48.7h13.8c3.1,0,5.7,0.3,8,0.9c2.2,0.6,4.1,1.5,5.6,2.7s2.5,2.6,3.2,4.3s1.1,3.5,1.1,5.6c0,1.7-0.3,3.3-0.8,4.8
	s-1.3,2.8-2.4,4c-1,1.2-2.3,2.2-3.8,3s-3.2,1.5-5,1.9c0.8,0.5,1.6,1.2,2.2,2.1L1253.9,285z M1231.4,259.9c1.9,0,3.6-0.2,5-0.7
	c1.5-0.5,2.7-1.1,3.7-2c1-0.8,1.7-1.9,2.2-3c0.5-1.2,0.7-2.5,0.7-3.9c0-2.9-1-5.1-2.9-6.6s-4.8-2.2-8.6-2.2h-7.2v18.4H1231.4z"/>
<linearGradient id="SVGID_14_" gradientUnits="userSpaceOnUse" x1="1264.5725" y1="85.35" x2="1303.469" y2="85.35" gradientTransform="matrix(1 0 0 -1 0 346)">
	<stop  offset="0" style="stop-color:#108C42"/>
	<stop  offset="1" style="stop-color:#0C843B"/>
</linearGradient>
<path class="st17" d="M1271.1,257.6h2.5c0.9,0,1.6-0.1,2.1-0.3c0.5-0.2,1-0.6,1.4-1.1l16.2-18.4c0.5-0.6,0.9-1,1.4-1.2
	s1.1-0.3,1.8-0.3h5.6l-18.6,21c-0.5,0.5-0.9,1-1.3,1.3c-0.4,0.4-0.9,0.6-1.3,0.9c0.6,0.2,1.2,0.5,1.7,0.9s1,0.9,1.5,1.5l19.4,23.1
	h-5.7c-0.4,0-0.8,0-1.1-0.1c-0.3-0.1-0.6-0.1-0.8-0.3c-0.2-0.1-0.4-0.3-0.6-0.4s-0.3-0.4-0.5-0.6l-16.8-19.3c-0.5-0.6-0.9-1-1.5-1.2
	c-0.5-0.2-1.3-0.4-2.4-0.4h-3V285h-6.6v-48.7h6.6L1271.1,257.6L1271.1,257.6z"/>
<g>
	<linearGradient id="SVGID_15_" gradientUnits="userSpaceOnUse" x1="619.5708" y1="260.498" x2="656.9263" y2="260.498">
		<stop  offset="0" style="stop-color:#108C42"/>
		<stop  offset="1" style="stop-color:#0C843B"/>
	</linearGradient>
	<path class="st18" d="M656.9,243.2h-14.8v41.1h-7.7v-41.1h-14.8v-6.4h37.4V243.2z"/>
	<linearGradient id="SVGID_16_" gradientUnits="userSpaceOnUse" x1="666.8257" y1="260.498" x2="696.4932" y2="260.498">
		<stop  offset="0" style="stop-color:#108C42"/>
		<stop  offset="1" style="stop-color:#0C843B"/>
	</linearGradient>
	<path class="st19" d="M696.5,278l0,6.2h-29.6v-47.5h29.6v6.2h-21.9v14.3h17.5v6h-17.5V278H696.5z"/>
	<linearGradient id="SVGID_17_" gradientUnits="userSpaceOnUse" x1="704.3145" y1="260.498" x2="735.8291" y2="260.498">
		<stop  offset="0" style="stop-color:#108C42"/>
		<stop  offset="1" style="stop-color:#0C843B"/>
	</linearGradient>
	<path class="st20" d="M733,244.9c-0.2,0.4-0.5,0.7-0.8,0.9c-0.3,0.2-0.6,0.3-1,0.3c-0.4,0-0.9-0.2-1.4-0.5
		c-0.5-0.4-1.2-0.7-1.9-1.2c-0.8-0.4-1.7-0.8-2.7-1.2c-1-0.4-2.3-0.5-3.7-0.5c-1.3,0-2.5,0.2-3.5,0.5s-1.8,0.8-2.5,1.4
		c-0.7,0.6-1.2,1.3-1.5,2.1c-0.3,0.8-0.5,1.7-0.5,2.6c0,1.2,0.3,2.2,1,3c0.6,0.8,1.5,1.5,2.5,2.1c1,0.6,2.2,1.1,3.6,1.5
		c1.3,0.4,2.7,0.9,4.1,1.4c1.4,0.5,2.8,1,4.1,1.7s2.5,1.4,3.6,2.3s1.9,2.1,2.5,3.5c0.6,1.4,1,3,1,5c0,2.1-0.4,4.1-1.1,5.9
		c-0.7,1.8-1.8,3.5-3.2,4.8c-1.4,1.4-3.1,2.5-5.1,3.2c-2,0.8-4.3,1.2-6.9,1.2c-1.5,0-3-0.1-4.4-0.4c-1.4-0.3-2.8-0.7-4.1-1.3
		c-1.3-0.5-2.5-1.2-3.7-2s-2.2-1.6-3.1-2.6l2.2-3.7c0.2-0.3,0.5-0.5,0.8-0.7c0.3-0.2,0.6-0.3,1-0.3c0.5,0,1.1,0.2,1.7,0.7
		c0.6,0.5,1.4,1,2.2,1.6c0.9,0.6,1.9,1.1,3.2,1.6c1.2,0.5,2.7,0.7,4.4,0.7c2.8,0,5-0.7,6.5-2c1.5-1.4,2.3-3.2,2.3-5.6
		c0-1.3-0.3-2.4-1-3.3c-0.6-0.8-1.5-1.6-2.5-2.1s-2.2-1.1-3.6-1.5c-1.3-0.4-2.7-0.8-4.1-1.3s-2.8-1-4.1-1.6
		c-1.3-0.6-2.5-1.4-3.6-2.4s-1.9-2.2-2.5-3.6c-0.6-1.4-1-3.2-1-5.4c0-1.7,0.3-3.4,1-5c0.7-1.6,1.6-3,2.9-4.3s2.9-2.2,4.8-3
		c1.9-0.7,4-1.1,6.5-1.1c2.7,0,5.2,0.4,7.5,1.3c2.3,0.9,4.2,2.1,5.9,3.7L733,244.9z"/>
	<linearGradient id="SVGID_18_" gradientUnits="userSpaceOnUse" x1="742.791" y1="260.498" x2="780.1465" y2="260.498">
		<stop  offset="0" style="stop-color:#108C42"/>
		<stop  offset="1" style="stop-color:#0C843B"/>
	</linearGradient>
	<path class="st21" d="M780.1,243.2h-14.8v41.1h-7.7v-41.1h-14.8v-6.4h37.4V243.2z"/>
	<linearGradient id="SVGID_19_" gradientUnits="userSpaceOnUse" x1="790.0459" y1="260.498" x2="829.3818" y2="260.498">
		<stop  offset="0" style="stop-color:#108C42"/>
		<stop  offset="1" style="stop-color:#0C843B"/>
	</linearGradient>
	<path class="st22" d="M829.4,236.7v47.5h-3.9c-0.6,0-1.1-0.1-1.5-0.3c-0.4-0.2-0.8-0.6-1.2-1l-26.1-33.5c0.1,0.6,0.1,1.3,0.1,1.9
		s0,1.2,0,1.7v31.3H790v-47.5h4c0.3,0,0.6,0,0.8,0c0.2,0,0.4,0.1,0.6,0.2c0.2,0.1,0.4,0.2,0.6,0.4s0.4,0.4,0.6,0.7l26.1,33.6
		c-0.1-0.7-0.1-1.4-0.1-2c0-0.7,0-1.3,0-1.8v-31H829.4z"/>
	<linearGradient id="SVGID_20_" gradientUnits="userSpaceOnUse" x1="844" y1="260.498" x2="873.667" y2="260.498">
		<stop  offset="0" style="stop-color:#108C42"/>
		<stop  offset="1" style="stop-color:#0C843B"/>
	</linearGradient>
	<path class="st23" d="M873.7,278l0,6.2H844v-47.5h29.6v6.2h-21.9v14.3h17.5v6h-17.5V278H873.7z"/>
	<linearGradient id="SVGID_21_" gradientUnits="userSpaceOnUse" x1="880.6631" y1="260.498" x2="918.0186" y2="260.498">
		<stop  offset="0" style="stop-color:#108C42"/>
		<stop  offset="1" style="stop-color:#0C843B"/>
	</linearGradient>
	<path class="st24" d="M918,243.2h-14.8v41.1h-7.7v-41.1h-14.8v-6.4H918V243.2z"/>
</g>
</svg>
