<?xml version="1.0" encoding="utf-8"?>
<!-- Generator: Adobe Illustrator 25.0.0, SVG Export Plug-In . SVG Version: 6.00 Build 0)  -->
<svg version="1.1" id="Layer_1" xmlns="http://www.w3.org/2000/svg" xmlns:xlink="http://www.w3.org/1999/xlink" x="0px" y="0px"
	 viewBox="0 0 1377.9 344.8" style="enable-background:new 0 0 1377.9 344.8;" xml:space="preserve">
<style type="text/css">
	.st0{fill:#13C670;}
	.st1{fill:url(#SVGID_1_);}
	.st2{fill:#206529;}
	.st3{fill:#195521;}
	.st4{fill:#0E181E;}
	.st5{fill:url(#SVGID_2_);}
	.st6{fill:url(#SVGID_3_);}
	.st7{fill:url(#SVGID_4_);}
	.st8{fill:url(#SVGID_5_);}
	.st9{fill:url(#SVGID_6_);}
	.st10{fill:url(#SVGID_7_);}
	.st11{fill:url(#SVGID_8_);}
	.st12{fill:url(#SVGID_9_);}
	.st13{fill:url(#SVGID_10_);}
	.st14{fill:url(#SVGID_11_);}
	.st15{fill:url(#SVGID_12_);}
	.st16{fill:url(#SVGID_13_);}
	.st17{fill:url(#SVGID_14_);}
	.st18{fill:url(#SVGID_15_);}
	.st19{fill:url(#SVGID_16_);}
	.st20{fill:url(#SVGID_17_);}
	.st21{fill:url(#SVGID_18_);}
	.st22{fill:url(#SVGID_19_);}
	.st23{fill:url(#SVGID_20_);}
	.st24{fill:url(#SVGID_21_);}
</style>
<g>
	<polygon class="st0" points="12.8,295.5 167.5,45.4 167.5,225 	"/>
	
		<linearGradient id="SVGID_1_" gradientUnits="userSpaceOnUse" x1="15.3725" y1="232.4797" x2="-101.7541" y2="453.2791" gradientTransform="matrix(-1 0 0 1 157.4839 -166)">
		<stop  offset="0" style="stop-color:#108C42"/>
		<stop  offset="1" style="stop-color:#0C843B"/>
	</linearGradient>
	<polygon class="st1" points="322.3,295.5 167.5,45.4 167.5,225 	"/>
	<polygon class="st2" points="322.3,295.5 167.5,225 167.5,251.6 	"/>
	<polygon class="st3" points="12.8,295.5 167.5,225 167.5,251.6 	"/>
</g>
<g>
	<path class="st4" d="M450.6,169.2h-29.5l-4.5,23.4h-28.7l29.3-129.5h37.1l30.1,129.5h-29.3L450.6,169.2z M446.4,148.1l-10.6-54.8
		l-10.6,54.8H446.4z"/>
	<path class="st4" d="M575.3,63.1v129.5h-26.1L520.9,115v77.6h-26.5V63.1h26.3l27.9,77.4V63.1H575.3z"/>
	<path class="st4" d="M648,169.2h-29.5l-4.5,23.4h-28.7l29.3-129.5h37.1l30.1,129.5h-29.3L648,169.2z M643.7,148.1l-10.6-54.8
		l-10.6,54.8H643.7z"/>
	<path class="st4" d="M758,171.3v21.4h-66.2V63.1h28.9v108.2L758,171.3L758,171.3z"/>
	<path class="st4" d="M819.7,63.1c18.5,0,25.7,8.6,25.7,22.4V170c0,14.1-7.1,22.6-25.7,22.6h-27.3c-18.5,0-25.9-8.6-25.9-22.6V85.5
		c0-13.8,7.3-22.4,25.9-22.4H819.7z M816.2,89.6c0-3.7-1.4-5.1-5.3-5.1h-9.8c-4.1,0-5.5,1.4-5.5,5.1v76.6c0,3.7,1.4,5.1,5.5,5.1h9.8
		c3.9,0,5.3-1.4,5.3-5.1V89.6z"/>
	<path class="st4" d="M910.3,105.1V88.2c0-3.7-1.4-5.1-5.5-5.1h-8.4c-4.1,0-5.5,1.4-5.5,5.1v79.4c0,3.9,1.4,5.1,5.5,5.1h8.4
		c4.1,0,5.5-1.2,5.5-5.1v-25.3h-10.2V123h39.3v47.3c0,13.9-7.3,22.4-25.7,22.4h-26.3c-18.5,0-25.7-8.6-25.7-22.4V85.5
		c0-13.8,7.1-22.4,25.7-22.4h26.3c18.3,0,25.7,8.6,25.7,22.4v19.6H910.3z"/>
</g>
<g>
	<path class="st4" d="M1021.2,143.7c0-3.7-1.4-4.9-5.5-4.9h-17.9c-17.9,0-24-9-24-22.8V86.4c0-13.8,7.1-22.4,25.7-22.4h24.8
		c18.5,0,25.7,8.6,25.7,22.4v16.9h-29.1V90.5c0-3.7-1.4-5.1-5.5-5.1h-6.9c-4.1,0-5.5,1.4-5.5,5.1v22.8c0,3.7,1.4,4.9,5.5,4.9h17.5
		c18.1,0,24.4,8.4,24.4,22.2V171c0,14.1-7.1,22.6-25.7,22.6h-24.6c-18.5,0-25.9-8.6-25.9-22.6v-16.7h29.1v12.8
		c0,3.7,1.4,5.1,5.5,5.1h6.9c4.1,0,5.5-1.4,5.5-5.1L1021.2,143.7L1021.2,143.7z"/>
	<path class="st4" d="M1113.5,109.5V89.1c0-3.7-1.4-5.1-5.3-5.1h-8.4c-4.1,0-5.5,1.4-5.5,5.1v79.4c0,3.9,1.4,5.1,5.5,5.1h8.4
		c3.9,0,5.3-1.2,5.3-5.1v-19.8h29.3v22.4c0,13.9-7.3,22.4-25.9,22.4h-26.1c-18.5,0-25.7-8.6-25.7-22.4V86.4
		c0-13.8,7.1-22.4,25.7-22.4h26.1c18.5,0,25.9,8.6,25.9,22.4v23L1113.5,109.5L1113.5,109.5z"/>
	<path class="st4" d="M1212.5,170.2H1183l-4.5,23.4h-28.7L1179.1,64h37.1l30.1,129.5H1217L1212.5,170.2z M1208.2,149l-10.6-54.8
		L1187,149H1208.2z"/>
	<path class="st4" d="M1337.1,64v129.5H1311l-28.3-77.6v77.6h-26.5V64h26.3l27.9,77.4V64H1337.1z"/>
</g>
<g>
	<g>
		
			<linearGradient id="SVGID_2_" gradientUnits="userSpaceOnUse" x1="410.7904" y1="389.2092" x2="436.8325" y2="389.2092" gradientTransform="matrix(1 0 0 1 0 -166)">
			<stop  offset="0" style="stop-color:#108C42"/>
			<stop  offset="1" style="stop-color:#0C843B"/>
		</linearGradient>
		<path class="st5" d="M436.8,221c0,0.4-0.4,0.8-0.9,0.7h-0.3l-10.4-2.1c0,0,0,0-0.1,0l-4.2-1l-3.1,0.1l-2.2,0.3
			c-1.2,0.2-2.3,0.9-2.9,2l-0.1,0.1c-0.1,0.1-0.1,0.2,0,0.3l0.1,0.2c0.4,1.1,1.3,2,2.5,2.3c0.4,0.1,0.9,0.3,1.3,0.5
			c0.4,0.2,0.8,0.4,1.2,0.8l0.4,0.3c0.9,0.7,1.5,1.4,2.1,2.3c0.1,0.1,0.1,0.2,0.2,0.2c0.2,0.3,0.1,0.9-0.3,1.1
			c-0.1,0.1-0.2,0.1-0.3,0.1s-0.1,0-0.2,0h-0.1c-0.2,0-0.3-0.2-0.4-0.3c-0.3-0.7-0.9-1.2-1.3-1.7c-0.1-0.1-0.3-0.3-0.4-0.4l-0.4-0.3
			c-0.3-0.2-0.5-0.4-1-0.5c-0.3-0.2-0.7-0.3-1-0.4c-1.6-0.5-2.8-1.6-3.5-3.3l-0.1-0.2c-0.2-0.5-0.2-1.2,0.2-1.7l0.1-0.1
			c0.9-1.4,2.4-2.4,4-2.6l2.3-0.3h0.1l3.4-0.1c0.1,0,0.1,0,0.2,0l4.3,1l10.3,2.1l0.4,0.1C436.6,220.3,436.9,220.6,436.8,221z"/>
		
			<linearGradient id="SVGID_3_" gradientUnits="userSpaceOnUse" x1="431.6337" y1="374.2387" x2="450.4058" y2="374.2387" gradientTransform="matrix(1 0 0 1 0 -166)">
			<stop  offset="0" style="stop-color:#108C42"/>
			<stop  offset="1" style="stop-color:#0C843B"/>
		</linearGradient>
		<path class="st6" d="M450.3,218.2c-0.2,0.4-0.7,0.5-1.1,0.3c-0.9-0.5-1.7-1.1-2.5-1.8c-1.8-1.6-3.3-3.7-4.1-6.1l-0.1-0.4v-0.1
			l-0.5-3.9c-0.3-1.8-0.9-3.6-1.8-5.1c-0.3-0.5-0.7-1-1.2-1.3c-0.4-0.3-1-0.7-1.5-0.9l-0.7-0.2c-0.3-0.1-0.7-0.1-1,0l-0.3,0.2
			c-0.8,0.4-1.3,1.1-1.5,2l-0.1,0.2c-0.3,1.5-0.5,3-0.3,4.6l0.3,3.5c0.1,0.9,0.2,1.7,0.4,2.6l1,4.7l0,0l0.2,1.4l0.2,0.9
			c0.1,0.4-0.2,0.9-0.7,0.9h-0.1c-0.3,0-0.7-0.2-0.8-0.7l-0.1-0.3l-0.3-1.8l-1-4.7c-0.2-1-0.3-1.8-0.4-2.8l-0.3-3.5
			c-0.1-1.7,0-3.5,0.4-5.1l0.1-0.2c0.3-1.3,1.2-2.3,2.3-2.9l0.4-0.2c0.7-0.3,1.5-0.4,2.3-0.1l0.7,0.2c0.8,0.2,1.4,0.7,2,1.2
			c0.5,0.4,1.1,1.1,1.5,1.7c1.1,1.7,1.7,3.7,2.1,5.6l0.5,3.8l0.1,0.3c1.1,2.9,3.1,5.4,6,7.1c0.1,0,0.1,0.1,0.2,0.1
			C450.5,217.5,450.5,217.9,450.3,218.2z"/>
	</g>
	
		<linearGradient id="SVGID_4_" gradientUnits="userSpaceOnUse" x1="417.2411" y1="389.9234" x2="431.8893" y2="389.9234" gradientTransform="matrix(1 0 0 1 0 -166)">
		<stop  offset="0" style="stop-color:#108C42"/>
		<stop  offset="1" style="stop-color:#0C843B"/>
	</linearGradient>
	<path class="st7" d="M431.1,227.4c-0.2,0-0.5-0.1-0.7-0.3c-4.7-6.9-12.2-4.8-12.2-4.8c-0.4,0.1-0.9-0.1-1-0.5
		c-0.1-0.4,0.1-0.9,0.5-1c0.1,0,2.2-0.7,5-0.3c2.6,0.3,6.2,1.6,9,5.8c0.2,0.3,0.1,0.9-0.2,1.1C431.4,227.4,431.3,227.4,431.1,227.4z
		"/>
	
		<linearGradient id="SVGID_5_" gradientUnits="userSpaceOnUse" x1="352.6064" y1="421.9928" x2="470.0308" y2="421.9928" gradientTransform="matrix(1 0 0 1 0 -166)">
		<stop  offset="0" style="stop-color:#108C42"/>
		<stop  offset="1" style="stop-color:#0C843B"/>
	</linearGradient>
	<path class="st8" d="M468.8,233.8c-0.7-0.8-1.2-1.6-1.5-2.5l-0.9-2c-1.4-3-3.4-5.6-5.9-7.9l-3.4-2.9l-2.2-0.8l-4.9-1l-4.6-0.8
		l-5.2,0.2l-5.4,1.1l-1.1,1.5l1.1,1.7l0.5,0.9c1.6,2.4,2.4,5.2,2.4,8.1v1.4c0,0.4-0.2,0.8-0.5,1c-0.3,0.2-0.8,0.3-1.1,0.2l-2.2-0.7
		l-2.7-0.1c-0.8,0-1.6-0.1-2.4-0.2l-2.5-0.4c-1.7-0.3-3.5-0.9-5.1-1.6l-0.5-0.2c-0.5-0.2-1.1-0.4-1.6-0.7h-0.1
		c-0.4-0.1-0.9-0.2-1.3-0.3c-1.1-0.2-2.1-0.3-3.1-0.3l0,0l-5.4-0.1l0,0l-1.3,0.1c-3.1,0.2-6.2,0.9-9.2,1.8l-0.3,0.1
		c-2.5,0.9-4.9,2-7.2,3.3l-2.1,1.2c-1.8,1.1-3.6,2.4-5.2,3.8l-1.8,1.6c-2.7,2.4-4.9,5.2-6.5,8.4l-0.4,0.9l-4.2,8.6l-0.8,1.8
		c-1.1,2.8-1.6,5.8-1.6,8.7c0,0.2,0,0.4,0,0.7l0.3,1.6c0,0.1,0,0.1,0,0.2v0.1v0.1c-0.1,0.3-0.4,0.5-0.8,0.5H368
		c-2.9-0.2-4.9-1.4-5.9-3.5l-0.2,0.3c-0.1,0.2-0.2,0.3-0.4,0.4c-0.2,0.1-0.4,0.1-0.7,0c-0.1-0.1-2.7-1.2-3.8-5.1
		c-0.4,0.4-0.8,1.1-1,2c-0.2,1.2,0.1,2.4,1.1,3.8c0.2,0.3,0.2,0.8-0.1,1c-0.2,0.2-0.7,0.3-1,0.1l-3.7-2.6c0.1,1.2,0.3,2.9,1,4.7
		c1.3,4,3.7,6.3,7.1,6.8c4.2,0.5,7.2,0.5,9.2-0.2c0,0,0,0,0.1,0c0.1,0,0.1,0,0.2,0c0.1,0,0.1,0,0.2,0s0.1,0.1,0.2,0.1c0,0,0,0,0.1,0
		s0.1,0.1,0.1,0.1s0.1,0.1,0.1,0.2l0,0l0,0c0,0,0,0,0,0.1c2.8,8.9,9.7,12,10.2,12.3c3.3,0.9,9.2,0.4,10.3,0.4
		c0.2-0.1,0.5-0.1,0.9-0.1l4.7,1.2c2.6,0.7,5.3,0.7,7.9,0l4.8-1.2l1.2-0.5c0.5-0.2,1.2,0,1.5,0.4c0.3,0.4,0.3,1.1,0,1.5l-2.1,2.4
		l0.2,0.2h3.3c0.9,0,1.7-0.1,2.5-0.3l3.6-1.2c0.2,0,0.4-0.1,0.5,0l2.3,0.3c1.6,0.2,3.3,0,4.8-0.7l5.1-2.2l1.7-1c0.5-0.3,1-1,1-1.7
		c0-0.7-0.3-1.3-1-1.7l-1.4-0.9l0,0l-0.7-0.3c-2.2-1-4.6-1.4-6.9-1.2l-1.4,0.1c-0.7,0.1-1.2-0.3-1.3-0.9c-0.2-0.5,0.1-1.2,0.5-1.5
		l2.2-1.2l0,0l3.4-3.1c0.3-0.3,9.6-7.6,9.6-7.6l0,0l2.4-2l3.1-2.5l0,0l3-3.3c0,0,0,0,0-0.1l0,0l1.3-1.2c1.2-1.1,2.2-2.3,3-3.6
		l0.1-0.2c1-1.4,1.5-3.1,1.6-4.9l0,0l0,0c0-0.1,0-0.2,0.1-0.3l0.8-2.3l0.3-1c0.2-0.5,0.7-0.9,1.3-0.9l1.7,0.1c0.4,0,0.9,0,1.3-0.1
		c1.6-0.4,3.3-1.3,4.5-2.5l0.1-0.1c0-0.1,0.1-0.1,0.1-0.1l1.6-1.1c1.1-0.8,2.1-1.8,2.7-3.1l0.4-0.8l0.1-1.1c0-0.3,0.2-0.7,0.4-0.9
		c0.2-0.2,0.4-0.2,0.7-0.3l0.5-1v-2.2L468.8,233.8z M422.6,282.2c-0.1,0.3-0.4,0.5-0.8,0.5c-0.1,0-0.1,0-0.2,0
		c-0.4-0.1-0.7-0.5-0.5-1c0,0,1.5-5.1,1.4-10.6c-0.1-7.3-2.7-11.8-7.8-13.6c-5.1-1.8-10.4-0.5-15.8,3.8c-4.1,3.4-6.7,7.3-6.7,7.4
		c-0.2,0.3-0.8,0.4-1.1,0.2c-0.3-0.2-0.4-0.8-0.2-1.1c0.1-0.2,2.7-4.2,7.1-7.7c5.8-4.7,11.8-6.2,17.4-4.1c5.6,2.1,8.8,7.3,8.9,15.1
		C424.2,276.8,422.7,281.9,422.6,282.2z M459.3,232.2c-0.1,0.3-0.5,0.5-1,0.4c-0.3-0.1-1.2,0-1.8,0.1c-0.9,0.4-1.5,0.7-2.3,0.7
		c-1.4,0-2.5-0.9-2.9-1.4c-0.1-0.1-0.1-0.2-0.1-0.3c-0.1-0.9-1.1-1.6-1.5-1.8c-0.3-0.2-0.5-0.7-0.3-1c0.2-0.3,0.7-0.5,1-0.4
		c0.2,0,1-0.2,2.1-1c0.3-0.2,0.5-0.3,0.8-0.4c1-0.4,2-0.5,2.8-0.2c1.4,0.7,2,2.1,2,2.2c0,0.1,0,0.2,0,0.3c0,1.2,0.9,1.8,1,1.8
		C459.3,231.4,459.4,231.8,459.3,232.2z"/>
	
		<linearGradient id="SVGID_6_" gradientUnits="userSpaceOnUse" x1="367.2831" y1="435.8879" x2="369.057" y2="435.8879" gradientTransform="matrix(1 0 0 1 0 -166)">
		<stop  offset="0" style="stop-color:#108C42"/>
		<stop  offset="1" style="stop-color:#0C843B"/>
	</linearGradient>
	<path class="st9" d="M369.1,269.8c0,0.1,0,0.1,0,0.2v0.1v0.1c-0.1,0.3-0.4,0.5-0.8,0.5h-0.1c-0.3,0-0.5-0.3-0.7-0.7l-0.2-1.1
		c0.3,0.1,0.7,0.1,1.1,0.1C368.7,269.2,368.9,269.5,369.1,269.8z"/>
	
		<linearGradient id="SVGID_7_" gradientUnits="userSpaceOnUse" x1="369.3769" y1="445.2237" x2="370.9523" y2="445.2237" gradientTransform="matrix(1 0 0 1 0 -166)">
		<stop  offset="0" style="stop-color:#108C42"/>
		<stop  offset="1" style="stop-color:#0C843B"/>
	</linearGradient>
	<path class="st10" d="M370.9,279.1c0,0.3-0.2,0.7-0.5,0.8c-0.2,0.1-0.5,0.2-0.8,0.2c-0.1-0.2-0.2-0.5-0.2-0.8
		c-0.1-0.4,0.1-0.9,0.4-1c0,0,0,0,0.1,0c0.1,0,0.1,0,0.2,0s0.1,0,0.2,0c0.1,0,0.1,0.1,0.2,0.1c0,0,0,0,0.1,0c0.1,0,0.1,0.1,0.1,0.1
		s0.1,0.1,0.1,0.2l0,0v0.1C370.9,279,370.9,279,370.9,279.1z"/>
</g>
<g>
	<linearGradient id="SVGID_8_" gradientUnits="userSpaceOnUse" x1="496.2002" y1="262.8599" x2="542.52" y2="262.8599">
		<stop  offset="0" style="stop-color:#108C42"/>
		<stop  offset="1" style="stop-color:#0C843B"/>
	</linearGradient>
	<path class="st11" d="M542.5,244.4h-16.4V292h-13.5v-47.6h-16.4v-10.7h46.3V244.4z"/>
	<linearGradient id="SVGID_9_" gradientUnits="userSpaceOnUse" x1="554.1597" y1="262.8599" x2="591.6797" y2="262.8599">
		<stop  offset="0" style="stop-color:#108C42"/>
		<stop  offset="1" style="stop-color:#0C843B"/>
	</linearGradient>
	<path class="st12" d="M567.8,244.1v13.6h18.3v10h-18.3v13.9h23.9V292h-37.5v-58.3h37.5v10.4H567.8z"/>
	<linearGradient id="SVGID_10_" gradientUnits="userSpaceOnUse" x1="600.2793" y1="262.8599" x2="641.1592" y2="262.8599">
		<stop  offset="0" style="stop-color:#108C42"/>
		<stop  offset="1" style="stop-color:#0C843B"/>
	</linearGradient>
	<path class="st13" d="M637,245.6c-0.4,0.6-0.8,1.1-1.3,1.4c-0.4,0.3-1,0.5-1.7,0.5c-0.6,0-1.3-0.2-2-0.6c-0.7-0.4-1.5-0.8-2.4-1.3
		c-0.9-0.5-1.9-0.9-3.1-1.3c-1.1-0.4-2.5-0.6-3.9-0.6c-2.5,0-4.4,0.5-5.7,1.6c-1.2,1.1-1.9,2.5-1.9,4.4c0,1.2,0.4,2.1,1.1,2.9
		c0.7,0.8,1.7,1.4,2.9,2c1.2,0.6,2.6,1.1,4.2,1.5c1.6,0.5,3.2,1,4.8,1.6c1.6,0.6,3.2,1.2,4.8,2c1.6,0.8,2.9,1.8,4.2,3
		c1.2,1.2,2.2,2.7,2.9,4.4c0.7,1.7,1.1,3.8,1.1,6.2c0,2.7-0.5,5.2-1.4,7.6c-0.9,2.3-2.3,4.4-4.1,6.1c-1.8,1.7-4,3.1-6.6,4.1
		c-2.6,1-5.6,1.5-8.9,1.5c-1.8,0-3.7-0.2-5.5-0.6s-3.7-0.9-5.5-1.6c-1.8-0.7-3.4-1.5-5-2.4c-1.5-0.9-2.9-2-4-3.1l4-6.3
		c0.3-0.5,0.7-0.8,1.3-1.1s1.1-0.5,1.7-0.5c0.8,0,1.6,0.3,2.4,0.8c0.8,0.5,1.7,1.1,2.8,1.7c1,0.6,2.2,1.2,3.5,1.7s2.9,0.8,4.7,0.8
		c2.5,0,4.4-0.5,5.7-1.6c1.4-1.1,2-2.8,2-5.1c0-1.4-0.4-2.5-1.1-3.3c-0.7-0.9-1.7-1.6-2.9-2.1c-1.2-0.6-2.6-1.1-4.1-1.5
		c-1.5-0.4-3.1-0.9-4.8-1.4c-1.6-0.5-3.2-1.2-4.8-1.9c-1.5-0.8-2.9-1.8-4.1-3c-1.2-1.2-2.2-2.8-2.9-4.6c-0.7-1.9-1.1-4.1-1.1-6.9
		c0-2.2,0.4-4.3,1.3-6.4c0.9-2.1,2.2-3.9,3.9-5.6c1.7-1.6,3.8-2.9,6.3-3.9s5.3-1.5,8.5-1.5c1.8,0,3.5,0.1,5.2,0.4s3.3,0.7,4.8,1.2
		c1.5,0.5,2.9,1.2,4.3,2s2.5,1.6,3.5,2.6L637,245.6z"/>
	<linearGradient id="SVGID_11_" gradientUnits="userSpaceOnUse" x1="649.4785" y1="262.8599" x2="695.7979" y2="262.8599">
		<stop  offset="0" style="stop-color:#108C42"/>
		<stop  offset="1" style="stop-color:#0C843B"/>
	</linearGradient>
	<path class="st14" d="M695.8,244.4h-16.4V292h-13.5v-47.6h-16.4v-10.7h46.3V244.4z"/>
	<linearGradient id="SVGID_12_" gradientUnits="userSpaceOnUse" x1="707.4375" y1="262.8599" x2="758.3174" y2="262.8599">
		<stop  offset="0" style="stop-color:#108C42"/>
		<stop  offset="1" style="stop-color:#0C843B"/>
	</linearGradient>
	<path class="st15" d="M758.3,233.7V292h-7c-1,0-1.9-0.2-2.6-0.5c-0.7-0.3-1.4-0.9-2.1-1.7L719.1,255c0.1,1,0.2,2,0.2,3
		c0,1,0.1,1.9,0.1,2.7V292h-11.9v-58.3h7.1c0.6,0,1.1,0,1.5,0.1c0.4,0.1,0.8,0.2,1.1,0.3c0.3,0.1,0.6,0.4,0.9,0.6
		c0.3,0.3,0.6,0.6,1,1.1l27.7,35c-0.1-1.1-0.2-2.2-0.3-3.3c-0.1-1.1-0.1-2-0.1-3v-30.8H758.3z"/>
	<linearGradient id="SVGID_13_" gradientUnits="userSpaceOnUse" x1="774.3965" y1="262.8599" x2="811.917" y2="262.8599">
		<stop  offset="0" style="stop-color:#108C42"/>
		<stop  offset="1" style="stop-color:#0C843B"/>
	</linearGradient>
	<path class="st16" d="M788,244.1v13.6h18.3v10H788v13.9h23.9V292h-37.5v-58.3h37.5v10.4H788z"/>
	<linearGradient id="SVGID_14_" gradientUnits="userSpaceOnUse" x1="820.5967" y1="262.8599" x2="866.916" y2="262.8599">
		<stop  offset="0" style="stop-color:#108C42"/>
		<stop  offset="1" style="stop-color:#0C843B"/>
	</linearGradient>
	<path class="st17" d="M866.9,244.4h-16.4V292H837v-47.6h-16.4v-10.7h46.3V244.4z"/>
	<linearGradient id="SVGID_15_" gradientUnits="userSpaceOnUse" x1="899.3965" y1="262.8599" x2="950.2764" y2="262.8599">
		<stop  offset="0" style="stop-color:#108C42"/>
		<stop  offset="1" style="stop-color:#0C843B"/>
	</linearGradient>
	<path class="st18" d="M950.3,233.7V292h-7c-1,0-1.9-0.2-2.6-0.5c-0.7-0.3-1.4-0.9-2.1-1.7L911,255c0.1,1,0.2,2,0.2,3
		c0,1,0.1,1.9,0.1,2.7V292h-11.9v-58.3h7.1c0.6,0,1.1,0,1.5,0.1c0.4,0.1,0.8,0.2,1.1,0.3c0.3,0.1,0.6,0.4,0.9,0.6
		c0.3,0.3,0.6,0.6,1,1.1l27.7,35c-0.1-1.1-0.2-2.2-0.3-3.3c-0.1-1.1-0.1-2-0.1-3v-30.8H950.3z"/>
	<linearGradient id="SVGID_16_" gradientUnits="userSpaceOnUse" x1="966.3555" y1="262.8599" x2="1003.876" y2="262.8599">
		<stop  offset="0" style="stop-color:#108C42"/>
		<stop  offset="1" style="stop-color:#0C843B"/>
	</linearGradient>
	<path class="st19" d="M980,244.1v13.6h18.3v10H980v13.9h23.9V292h-37.5v-58.3h37.5v10.4H980z"/>
	<linearGradient id="SVGID_17_" gradientUnits="userSpaceOnUse" x1="1012.5557" y1="262.8599" x2="1058.875" y2="262.8599">
		<stop  offset="0" style="stop-color:#108C42"/>
		<stop  offset="1" style="stop-color:#0C843B"/>
	</linearGradient>
	<path class="st20" d="M1058.9,244.4h-16.4V292H1029v-47.6h-16.4v-10.7h46.3V244.4z"/>
	<linearGradient id="SVGID_18_" gradientUnits="userSpaceOnUse" x1="1065.0352" y1="262.8599" x2="1149.915" y2="262.8599">
		<stop  offset="0" style="stop-color:#108C42"/>
		<stop  offset="1" style="stop-color:#0C843B"/>
	</linearGradient>
	<path class="st21" d="M1149.9,233.7l-18,58.3h-12.2l-11-36.1c-0.2-0.6-0.4-1.2-0.6-1.9c-0.2-0.7-0.4-1.4-0.6-2.1
		c-0.2,0.7-0.4,1.5-0.6,2.1c-0.2,0.7-0.4,1.3-0.6,1.9l-11.1,36.1H1083l-18-58.3h11.4c1.2,0,2.2,0.3,2.9,0.8c0.8,0.5,1.3,1.2,1.5,2.1
		l8,30.4c0.2,1,0.5,2,0.7,3.1c0.2,1.1,0.5,2.3,0.7,3.5c0.5-2.5,1.1-4.7,1.8-6.7l9.4-30.4c0.2-0.7,0.8-1.4,1.5-2
		c0.8-0.6,1.7-0.9,2.9-0.9h4c1.2,0,2.1,0.3,2.8,0.8c0.7,0.5,1.3,1.2,1.6,2.1l9.4,30.4c0.7,1.9,1.3,4,1.8,6.4
		c0.2-1.2,0.4-2.3,0.7-3.4c0.2-1.1,0.5-2,0.7-3l8-30.4c0.2-0.8,0.7-1.5,1.5-2c0.8-0.6,1.8-0.9,2.9-0.9H1149.9z"/>
	<linearGradient id="SVGID_19_" gradientUnits="userSpaceOnUse" x1="1155.6748" y1="262.8599" x2="1216.2344" y2="262.8599">
		<stop  offset="0" style="stop-color:#108C42"/>
		<stop  offset="1" style="stop-color:#0C843B"/>
	</linearGradient>
	<path class="st22" d="M1216.2,262.8c0,4.2-0.7,8.1-2.2,11.8c-1.5,3.6-3.5,6.8-6.1,9.5c-2.6,2.7-5.8,4.8-9.5,6.3
		c-3.7,1.5-7.8,2.3-12.4,2.3s-8.7-0.8-12.4-2.3c-3.7-1.5-6.9-3.6-9.6-6.3c-2.7-2.7-4.7-5.8-6.2-9.5c-1.5-3.6-2.2-7.5-2.2-11.8
		c0-4.2,0.7-8.1,2.2-11.8c1.5-3.6,3.5-6.8,6.2-9.4c2.7-2.7,5.8-4.8,9.6-6.3c3.7-1.5,7.9-2.3,12.4-2.3s8.7,0.8,12.4,2.3
		c3.7,1.5,6.9,3.6,9.5,6.3c2.6,2.7,4.7,5.8,6.1,9.4C1215.5,254.7,1216.2,258.7,1216.2,262.8z M1202.4,262.8c0-2.9-0.4-5.5-1.1-7.8
		c-0.7-2.3-1.8-4.3-3.2-5.9c-1.4-1.6-3.1-2.8-5.1-3.7c-2-0.9-4.3-1.3-6.9-1.3c-2.6,0-4.9,0.4-7,1.3c-2,0.9-3.8,2.1-5.2,3.7
		c-1.4,1.6-2.5,3.6-3.2,5.9c-0.7,2.3-1.1,4.9-1.1,7.8c0,2.9,0.4,5.5,1.1,7.8c0.7,2.3,1.8,4.3,3.2,5.9c1.4,1.6,3.1,2.8,5.2,3.7
		s4.4,1.3,7,1.3c2.6,0,4.9-0.4,6.9-1.3s3.7-2.1,5.1-3.7c1.4-1.6,2.5-3.6,3.2-5.9C1202,268.4,1202.4,265.7,1202.4,262.8z"/>
	<linearGradient id="SVGID_20_" gradientUnits="userSpaceOnUse" x1="1228.9941" y1="262.8599" x2="1276.6748" y2="262.8599">
		<stop  offset="0" style="stop-color:#108C42"/>
		<stop  offset="1" style="stop-color:#0C843B"/>
	</linearGradient>
	<path class="st23" d="M1276.7,292h-12.2c-2.3,0-3.9-0.9-4.9-2.6l-9.7-16.9c-0.5-0.7-1-1.2-1.5-1.6c-0.6-0.3-1.4-0.5-2.4-0.5h-3.4
		V292H1229v-58.3h19c4.2,0,7.8,0.4,10.8,1.3c3,0.9,5.4,2.1,7.3,3.6c1.9,1.5,3.2,3.4,4.1,5.5s1.3,4.4,1.3,6.9c0,1.9-0.3,3.7-0.8,5.4
		c-0.5,1.7-1.3,3.2-2.2,4.7c-1,1.4-2.2,2.7-3.7,3.8c-1.5,1.1-3.1,2-5,2.8c0.9,0.5,1.7,1,2.5,1.7c0.8,0.7,1.5,1.5,2.1,2.4L1276.7,292
		z M1248,261.1c1.8,0,3.4-0.2,4.7-0.7c1.3-0.5,2.4-1.1,3.2-1.9c0.8-0.8,1.4-1.8,1.8-2.9c0.4-1.1,0.6-2.3,0.6-3.6
		c0-2.6-0.8-4.6-2.5-6c-1.7-1.4-4.2-2.2-7.7-2.2h-5.4v17.3H1248z"/>
	<linearGradient id="SVGID_21_" gradientUnits="userSpaceOnUse" x1="1286.3936" y1="262.8599" x2="1338.5537" y2="262.8599">
		<stop  offset="0" style="stop-color:#108C42"/>
		<stop  offset="1" style="stop-color:#0C843B"/>
	</linearGradient>
	<path class="st24" d="M1299.9,257.3h2.2c2,0,3.4-0.6,4.3-1.9l13.1-19c0.8-1,1.6-1.7,2.5-2.1c0.9-0.4,2-0.6,3.3-0.6h11.8l-17.3,23.6
		c-1.2,1.6-2.5,2.8-4,3.5c1,0.4,1.9,0.9,2.8,1.6c0.8,0.7,1.6,1.5,2.3,2.6l17.6,27h-12.1c-0.8,0-1.4-0.1-2-0.2
		c-0.5-0.1-1-0.3-1.4-0.5c-0.4-0.2-0.7-0.5-1-0.8c-0.3-0.3-0.6-0.7-0.8-1.1l-13.2-20.3c-0.5-0.7-1.1-1.3-1.8-1.6s-1.7-0.5-3-0.5
		h-3.3V292h-13.5v-58.3h13.5V257.3z"/>
</g>
</svg>
