<?xml version="1.0" encoding="utf-8"?>
<!-- Generator: Adobe Illustrator 26.0.0, SVG Export Plug-In . SVG Version: 6.00 Build 0)  -->
<svg version="1.1" id="Layer_1" xmlns="http://www.w3.org/2000/svg" xmlns:xlink="http://www.w3.org/1999/xlink" x="0px" y="0px"
	 viewBox="0 0 1713.91 363.13" style="enable-background:new 0 0 1713.91 363.13;" xml:space="preserve">
<style type="text/css">
	.st0{fill:#1E8AC8;}
	.st1{fill:#2D5B99;}
	.st2{fill:#3AC2D5;}
	.st3{fill:#1CBAE5;}
	.st4{fill:#BFE5E8;}
	.st5{fill:#10191F;}
	.st6{fill:url(#SVGID_1_);}
	.st7{fill:url(#SVGID_00000004532911051819986650000001115910979152968355_);}
	.st8{fill:url(#SVGID_00000182493886916702560610000013241274401052640678_);}
	.st9{fill:url(#SVGID_00000090292924874496307620000014152727741211893407_);}
	.st10{fill:url(#SVGID_00000060723133844735489630000000312499039627158440_);}
	.st11{fill:url(#SVGID_00000101092951147805457850000008168301662126903176_);}
	.st12{fill:url(#SVGID_00000133500223910984556760000010079909994898639285_);}
	.st13{fill:url(#SVGID_00000062172083543401729720000008829526315040921533_);}
	.st14{fill:url(#SVGID_00000027567275364419493090000017396336061113546130_);}
	.st15{fill:url(#SVGID_00000139257785631442538390000008251982607770216123_);}
	.st16{fill:url(#SVGID_00000026131010574990007730000006636212503862868379_);}
	.st17{fill:url(#SVGID_00000155862729220565847970000010507277205367608205_);}
	.st18{fill:url(#SVGID_00000165208447721381616840000004540948009104783286_);}
	.st19{fill:url(#SVGID_00000050621794218199430550000018206292987368109441_);}
	.st20{fill:url(#SVGID_00000176027655373208142400000013601348330009509260_);}
	.st21{fill:url(#SVGID_00000147203855077556282210000016901553881697068188_);}
	.st22{fill:url(#SVGID_00000157292577990385900650000012891440454295685562_);}
	.st23{fill:url(#SVGID_00000013895670519564191240000013158775631917377710_);}
	.st24{fill:url(#SVGID_00000063599206924684796880000003276935443595461780_);}
	.st25{fill:url(#SVGID_00000071520038114068925540000007810873953165845906_);}
</style>
<g>
	<polygon class="st0" points="237.41,221.08 187.11,189.59 169.07,205.33 120.46,172.47 66.49,213.53 166.93,277.33 	"/>
	<path class="st1" d="M237.41,221.08l49.83,31.18l-113.65,90.8c-2.06,1.64-4.93,1.82-7.17,0.43L17.61,251.34v-67.56l149.18,90.79
		L237.41,221.08z"/>
	<polygon class="st2" points="237.41,221.08 289.51,179.81 289.51,109.8 187.11,189.59 	"/>
	<polygon class="st2" points="66.49,213.53 17.61,183.78 69.72,140.37 120.46,172.47 	"/>
	<polygon class="st3" points="169.07,205.33 237.41,150.4 136.67,86.88 69.72,140.37 	"/>
	<polygon class="st4" points="137.28,18.57 289.51,109.8 237.41,150.4 136.67,86.88 69.72,140.37 17.61,109.8 	"/>
</g>
<g>
	<g>
		<path class="st5" d="M453.16,167.21h-41.33l-6.3,32.78h-40.21l41.05-181.42h51.97l42.17,181.42h-41.05L453.16,167.21z
			 M447.28,137.65l-14.85-76.77l-14.85,76.77H447.28z"/>
		<path class="st5" d="M627.86,18.57v181.42h-36.56L551.65,91.28v108.71h-37.12V18.57h36.84L590.45,127V18.57H627.86z"/>
		<path class="st5" d="M729.7,167.21h-41.33l-6.3,32.78h-40.21l41.05-181.42h51.97l42.17,181.42h-41.05L729.7,167.21z
			 M723.68,137.65l-14.85-76.77l-14.85,76.77H723.68z"/>
		<path class="st5" d="M883.8,170.15v29.98h-92.74V18.57h40.49v151.58L883.8,170.15L883.8,170.15z"/>
		<path class="st5" d="M970.24,18.57c25.92,0,36,12.05,36,31.38v118.38c0,19.75-9.95,31.66-36,31.66h-38.24
			c-25.92,0-36.28-12.05-36.28-31.66V49.95c0-19.33,10.23-31.38,36.28-31.38H970.24z M965.34,55.7c0-5.18-1.96-7.14-7.42-7.14
			h-13.73c-5.74,0-7.7,1.96-7.7,7.14v107.31c0,5.18,1.96,7.14,7.7,7.14h13.73c5.46,0,7.42-1.96,7.42-7.14V55.7z"/>
		<path class="st5" d="M1097.16,77.41V53.73c0-5.18-1.96-7.14-7.71-7.14h-11.77c-5.74,0-7.71,1.96-7.71,7.14v111.23
			c0,5.46,1.96,7.14,7.71,7.14h11.77c5.74,0,7.71-1.68,7.71-7.14v-35.44h-14.29v-27.04h55.06v66.26c0,19.47-10.23,31.38-36,31.38
			h-36.84c-25.92,0-36-12.05-36-31.38V49.95c0-19.33,9.95-31.38,36-31.38h36.84c25.64,0,36,12.05,36,31.38v27.46H1097.16z"/>
	</g>
	<g>
		<path class="st5" d="M1252.52,131.49c0-5.18-1.96-6.86-7.7-6.86h-25.08c-25.08,0-33.62-12.61-33.62-31.94V51.21
			c0-19.33,9.95-31.38,36-31.38h34.74c25.92,0,36,12.05,36,31.38v23.68h-40.77V56.96c0-5.18-1.96-7.14-7.7-7.14h-9.67
			c-5.74,0-7.71,1.96-7.71,7.14V88.9c0,5.18,1.96,6.86,7.71,6.86h24.52c25.36,0,34.18,11.77,34.18,31.1v42.87
			c0,19.75-9.95,31.66-36,31.66h-34.46c-25.92,0-36.28-12.05-36.28-31.66v-23.4h40.77v17.93c0,5.18,1.96,7.14,7.7,7.14h9.67
			c5.74,0,7.71-1.96,7.71-7.14L1252.52,131.49L1252.52,131.49z"/>
		<path class="st5" d="M1381.83,83.57V55c0-5.18-1.96-7.14-7.42-7.14h-11.77c-5.74,0-7.7,1.96-7.7,7.14v111.23
			c0,5.46,1.96,7.14,7.7,7.14h11.77c5.46,0,7.42-1.68,7.42-7.14v-27.74h41.05v31.38c0,19.47-10.23,31.38-36.28,31.38h-36.56
			c-25.92,0-36-12.05-36-31.38V51.21c0-19.33,9.95-31.38,36-31.38h36.56c25.92,0,36.28,12.05,36.28,31.38v32.22L1381.83,83.57
			L1381.83,83.57z"/>
		<path class="st5" d="M1520.52,168.61h-41.33l-6.3,32.78h-40.21l41.05-181.56h51.97l42.17,181.42h-41.05L1520.52,168.61z
			 M1514.49,138.91l-14.85-76.77l-14.85,76.77H1514.49z"/>
		<path class="st5" d="M1695.07,19.83v181.42h-36.56l-39.65-108.71v108.71h-37.12V19.83h36.84l39.09,108.43V19.83H1695.07z"/>
	</g>
	<g>
		<g>
			
				<linearGradient id="SVGID_1_" gradientUnits="userSpaceOnUse" x1="397.3936" y1="-65.2755" x2="433.8762" y2="-65.2755" gradientTransform="matrix(1 0 0 -1 0 177.6522)">
				<stop  offset="0" style="stop-color:#168D45"/>
				<stop  offset="1" style="stop-color:#138442"/>
			</linearGradient>
			<path class="st6" d="M433.83,239.78c0,0.56-0.56,1.12-1.26,0.98h-0.42l-14.57-2.94c0,0,0,0-0.14,0l-5.88-1.4l-4.34,0.14
				l-3.08,0.42c-1.68,0.28-3.22,1.26-4.06,2.8l-0.14,0.14c-0.14,0.14-0.14,0.28,0,0.42l0.14,0.28c0.56,1.54,1.82,2.8,3.5,3.22
				c0.56,0.14,1.26,0.42,1.82,0.7c0.56,0.28,1.12,0.56,1.68,1.12l0.56,0.42c1.26,0.98,2.1,1.96,2.94,3.22
				c0.14,0.14,0.14,0.28,0.28,0.28c0.28,0.42,0.14,1.26-0.42,1.54c-0.14,0.14-0.28,0.14-0.42,0.14c-0.14,0-0.14,0-0.28,0h-0.14
				c-0.28,0-0.42-0.28-0.56-0.42c-0.42-0.98-1.26-1.68-1.82-2.38c-0.14-0.14-0.42-0.42-0.56-0.56l-0.56-0.42
				c-0.42-0.28-0.7-0.56-1.4-0.7c-0.42-0.28-0.98-0.42-1.4-0.56c-2.24-0.7-3.92-2.24-4.9-4.62l-0.14-0.28
				c-0.28-0.7-0.28-1.68,0.28-2.38l0.14-0.14c1.26-1.96,3.36-3.36,5.6-3.64l3.22-0.42h0.14l4.76-0.14c0.14,0,0.14,0,0.28,0l6.02,1.4
				l14.43,2.94l0.56,0.14C433.55,238.8,433.97,239.22,433.83,239.78z"/>
			
				<linearGradient id="SVGID_00000087397688958594005640000017601120422943479204_" gradientUnits="userSpaceOnUse" x1="426.5932" y1="-44.5552" x2="452.8912" y2="-44.5552" gradientTransform="matrix(1 0 0 -1 0 177.6522)">
				<stop  offset="0" style="stop-color:#168D45"/>
				<stop  offset="1" style="stop-color:#138442"/>
			</linearGradient>
			<path style="fill:url(#SVGID_00000087397688958594005640000017601120422943479204_);" d="M452.74,235.85
				c-0.28,0.56-0.98,0.7-1.54,0.42c-1.26-0.7-2.38-1.54-3.5-2.52c-2.52-2.24-4.62-5.18-5.74-8.55l-0.14-0.56v-0.14l-0.7-5.46
				c-0.42-2.52-1.26-5.04-2.52-7.14c-0.42-0.7-0.98-1.4-1.68-1.82c-0.56-0.42-1.4-0.98-2.1-1.26l-0.98-0.28
				c-0.42-0.14-0.98-0.14-1.4,0l-0.42,0.28c-1.12,0.56-1.82,1.54-2.1,2.8l-0.14,0.28c-0.42,2.1-0.7,4.2-0.42,6.44l0.42,4.9
				c0.14,1.26,0.28,2.38,0.56,3.64l1.4,6.58l0,0l0.28,1.96l0.28,1.26c0.14,0.56-0.28,1.26-0.98,1.26h-0.14
				c-0.42,0-0.98-0.28-1.12-0.98l-0.14-0.42l-0.42-2.52l-1.4-6.58c-0.28-1.4-0.42-2.52-0.56-3.92l-0.42-4.9
				c-0.14-2.38,0-4.9,0.56-7.14l0.14-0.28c0.42-1.82,1.68-3.22,3.22-4.06l0.56-0.28c0.98-0.42,2.1-0.56,3.22-0.14l0.98,0.28
				c1.12,0.28,1.96,0.98,2.8,1.68c0.7,0.56,1.54,1.54,2.1,2.38c1.54,2.38,2.38,5.18,2.94,7.85l0.7,5.32l0.14,0.42
				c1.54,4.06,4.34,7.56,8.41,9.95c0.14,0,0.14,0.14,0.28,0.14C453.02,234.87,453.02,235.43,452.74,235.85z"/>
		</g>
		
			<linearGradient id="SVGID_00000088816677562621256660000002444912712542706330_" gradientUnits="userSpaceOnUse" x1="406.4304" y1="-66.1697" x2="426.9513" y2="-66.1697" gradientTransform="matrix(1 0 0 -1 0 177.6522)">
			<stop  offset="0" style="stop-color:#168D45"/>
			<stop  offset="1" style="stop-color:#138442"/>
		</linearGradient>
		<path style="fill:url(#SVGID_00000088816677562621256660000002444912712542706330_);" d="M425.85,248.74
			c-0.28,0-0.7-0.14-0.98-0.42c-6.58-9.67-17.09-6.72-17.09-6.72c-0.56,0.14-1.26-0.14-1.4-0.7c-0.14-0.56,0.14-1.26,0.7-1.4
			c0.14,0,3.08-0.98,7-0.42c3.64,0.42,8.69,2.24,12.61,8.13c0.28,0.42,0.14,1.26-0.28,1.54
			C426.27,248.74,426.13,248.74,425.85,248.74z"/>
		
			<linearGradient id="SVGID_00000022519019924455316240000001667000208457756064_" gradientUnits="userSpaceOnUse" x1="315.8831" y1="-110.8752" x2="480.3841" y2="-110.8752" gradientTransform="matrix(1 0 0 -1 0 177.6522)">
			<stop  offset="0" style="stop-color:#168D45"/>
			<stop  offset="1" style="stop-color:#138442"/>
		</linearGradient>
		<path style="fill:url(#SVGID_00000022519019924455316240000001667000208457756064_);" d="M478.66,257.71
			c-0.98-1.12-1.68-2.24-2.1-3.5l-1.26-2.8c-1.96-4.2-4.76-7.85-8.27-11.07l-4.76-4.06l-3.08-1.12l-6.86-1.4l-6.44-1.12l-7.28,0.28
			l-7.56,1.54l-1.54,2.1l1.54,2.38l0.7,1.26c2.24,3.36,3.36,7.28,3.36,11.35v1.96c0,0.56-0.28,1.12-0.7,1.4
			c-0.42,0.28-1.12,0.42-1.54,0.28l-3.08-0.98l-3.78-0.14c-1.12,0-2.24-0.14-3.36-0.28l-3.5-0.56c-2.38-0.42-4.9-1.26-7.14-2.24
			l-0.7-0.28c-0.7-0.28-1.54-0.56-2.24-0.98h-0.14c-0.56-0.14-1.26-0.28-1.82-0.42c-1.54-0.28-2.94-0.42-4.34-0.42l0,0l-7.56-0.14
			l0,0l-1.82,0.14c-4.34,0.28-8.69,1.26-12.89,2.52l-0.42,0.14c-3.5,1.26-6.86,2.8-10.09,4.62l-2.94,1.68
			c-2.52,1.54-5.04,3.36-7.28,5.32l-2.52,2.24c-3.78,3.36-6.86,7.28-9.11,11.77l-0.56,1.26l-5.88,12.05l-1.12,2.52
			c-1.54,3.92-2.24,8.13-2.24,12.19c0,0.28,0,0.56,0,0.98l0.42,2.24c0,0.14,0,0.14,0,0.28v0.14v0.14c-0.14,0.42-0.56,0.7-1.12,0.7
			h-0.14c-4.06-0.28-6.86-1.96-8.27-4.9l-0.28,0.42c-0.14,0.28-0.28,0.42-0.56,0.56c-0.28,0.14-0.56,0.14-0.98,0
			c-0.14-0.14-3.78-1.68-5.32-7.14c-0.56,0.56-1.12,1.54-1.4,2.8c-0.28,1.68,0.14,3.36,1.54,5.32c0.28,0.42,0.28,1.12-0.14,1.4
			c-0.28,0.28-0.98,0.42-1.4,0.14l-5.18-3.64c0.14,1.68,0.42,4.06,1.4,6.58c1.82,5.6,5.18,8.83,9.95,9.53
			c5.88,0.7,10.09,0.7,12.89-0.28c0,0,0,0,0.14,0s0.14,0,0.28,0c0.14,0,0.14,0,0.28,0s0.14,0.14,0.28,0.14c0,0,0,0,0.14,0
			c0.14,0,0.14,0.14,0.14,0.14s0.14,0.14,0.14,0.28l0,0l0,0c0,0,0,0,0,0.14c3.92,12.47,13.59,16.81,14.29,17.23
			c4.62,1.26,12.89,0.56,14.43,0.56c0.28-0.14,0.7-0.14,1.26-0.14l6.58,1.68c3.64,0.98,7.42,0.98,11.07,0l6.72-1.68l1.68-0.7
			c0.7-0.28,1.68,0,2.1,0.56c0.42,0.56,0.42,1.54,0,2.1l-2.94,3.36l0.28,0.28h4.62c1.26,0,2.38-0.14,3.5-0.42l5.04-1.68
			c0.28,0,0.56-0.14,0.7,0l3.22,0.42c2.24,0.28,4.62,0,6.72-0.98l7.14-3.08l2.38-1.4c0.7-0.42,1.4-1.4,1.4-2.38s-0.42-1.82-1.4-2.38
			l-1.96-1.26l0,0l-0.98-0.42c-3.08-1.4-6.44-1.96-9.67-1.68l-1.96,0.14c-0.98,0.14-1.68-0.42-1.82-1.26
			c-0.28-0.7,0.14-1.68,0.7-2.1l3.08-1.68l0,0l4.76-4.34c0.42-0.42,13.45-10.65,13.45-10.65l0,0l3.36-2.8l4.34-3.5l0,0l4.2-4.62
			c0,0,0,0,0-0.14l0,0l1.82-1.68c1.68-1.54,3.08-3.22,4.2-5.04l0.14-0.28c1.4-1.96,2.1-4.34,2.24-6.86l0,0l0,0
			c0-0.14,0-0.28,0.14-0.42l1.12-3.22l0.42-1.4c0.28-0.7,0.98-1.26,1.82-1.26l2.38,0.14c0.56,0,1.26,0,1.82-0.14
			c2.24-0.56,4.62-1.82,6.3-3.5l0.14-0.14c0-0.14,0.14-0.14,0.14-0.14l2.24-1.54c1.54-1.12,2.94-2.52,3.78-4.34l0.56-1.12l0.14-1.54
			c0-0.42,0.28-0.98,0.56-1.26c0.28-0.28,0.56-0.28,0.98-0.42l0.7-1.4v-3.08L478.66,257.71z M413.94,325.51
			c-0.14,0.42-0.56,0.7-1.12,0.7c-0.14,0-0.14,0-0.28,0c-0.56-0.14-0.98-0.7-0.7-1.4c0,0,2.1-7.14,1.96-14.85
			c-0.14-10.23-3.78-16.53-10.93-19.05c-7.14-2.52-14.57-0.7-22.13,5.32c-5.74,4.76-9.39,10.23-9.39,10.37
			c-0.28,0.42-1.12,0.56-1.54,0.28c-0.42-0.28-0.56-1.12-0.28-1.54c0.14-0.28,3.78-5.88,9.95-10.79c8.13-6.58,16.53-8.69,24.38-5.74
			c7.85,2.94,12.33,10.23,12.47,21.15C416.18,317.95,414.08,325.09,413.94,325.51z M465.35,255.47c-0.14,0.42-0.7,0.7-1.4,0.56
			c-0.42-0.14-1.68,0-2.52,0.14c-1.26,0.56-2.1,0.98-3.22,0.98c-1.96,0-3.5-1.26-4.06-1.96c-0.14-0.14-0.14-0.28-0.14-0.42
			c-0.14-1.26-1.54-2.24-2.1-2.52c-0.42-0.28-0.7-0.98-0.42-1.4c0.28-0.42,0.98-0.7,1.4-0.56c0.28,0,1.4-0.28,2.94-1.4
			c0.42-0.28,0.7-0.42,1.12-0.56c1.4-0.56,2.8-0.7,3.92-0.28c1.96,0.98,2.8,2.94,2.8,3.08c0,0.14,0,0.28,0,0.42
			c0,1.68,1.26,2.52,1.4,2.52C465.35,254.35,465.49,254.91,465.35,255.47z"/>
		
			<linearGradient id="SVGID_00000168799928378028014790000013088457800800657826_" gradientUnits="userSpaceOnUse" x1="336.4438" y1="-130.4879" x2="338.9289" y2="-130.4879" gradientTransform="matrix(1 0 0 -1 0 177.6522)">
			<stop  offset="0" style="stop-color:#168D45"/>
			<stop  offset="1" style="stop-color:#138442"/>
		</linearGradient>
		<path style="fill:url(#SVGID_00000168799928378028014790000013088457800800657826_);" d="M338.99,308.14c0,0.14,0,0.14,0,0.28
			v0.14v0.14c-0.14,0.42-0.56,0.7-1.12,0.7h-0.14c-0.42,0-0.7-0.42-0.98-0.98l-0.28-1.54c0.42,0.14,0.98,0.14,1.54,0.14
			C338.43,307.3,338.71,307.72,338.99,308.14z"/>
		
			<linearGradient id="SVGID_00000043442005954792155570000011538003774965468074_" gradientUnits="userSpaceOnUse" x1="339.377" y1="-143.6565" x2="341.584" y2="-143.6565" gradientTransform="matrix(1 0 0 -1 0 177.6522)">
			<stop  offset="0" style="stop-color:#168D45"/>
			<stop  offset="1" style="stop-color:#138442"/>
		</linearGradient>
		<path style="fill:url(#SVGID_00000043442005954792155570000011538003774965468074_);" d="M341.51,321.17
			c0,0.42-0.28,0.98-0.7,1.12c-0.28,0.14-0.7,0.28-1.12,0.28c-0.14-0.28-0.28-0.7-0.28-1.12c-0.14-0.56,0.14-1.26,0.56-1.4
			c0,0,0,0,0.14,0s0.14,0,0.28,0c0.14,0,0.14,0,0.28,0s0.14,0.14,0.28,0.14c0,0,0,0,0.14,0c0.14,0,0.14,0.14,0.14,0.14
			s0.14,0.14,0.14,0.28l0,0v0.14C341.51,321.03,341.51,321.03,341.51,321.17z"/>
	</g>
	<g>
		
			<linearGradient id="SVGID_00000017489915467542335480000005935329840402801824_" gradientUnits="userSpaceOnUse" x1="517.0447" y1="45.2484" x2="581.9069" y2="45.2484" gradientTransform="matrix(1 0 0 -1 0 343.6522)">
			<stop  offset="0" style="stop-color:#168D45"/>
			<stop  offset="1" style="stop-color:#138442"/>
		</linearGradient>
		<path style="fill:url(#SVGID_00000017489915467542335480000005935329840402801824_);" d="M581.91,272.56h-22.97v66.68h-18.91
			v-66.68h-22.97v-14.99h64.86V272.56z"/>
		
			<linearGradient id="SVGID_00000111149464251813007080000000759261628874104477_" gradientUnits="userSpaceOnUse" x1="598.2411" y1="45.2484" x2="650.7753" y2="45.2484" gradientTransform="matrix(1 0 0 -1 0 343.6522)">
			<stop  offset="0" style="stop-color:#168D45"/>
			<stop  offset="1" style="stop-color:#138442"/>
		</linearGradient>
		<path style="fill:url(#SVGID_00000111149464251813007080000000759261628874104477_);" d="M617.35,272.14v19.05h25.64v14.01h-25.64
			v19.47h33.48v14.57H598.3v-81.67h52.53v14.57L617.35,272.14L617.35,272.14z"/>
		
			<linearGradient id="SVGID_00000080917867877903124680000013179349134678665126_" gradientUnits="userSpaceOnUse" x1="662.8505" y1="45.1784" x2="720.1196" y2="45.1784" gradientTransform="matrix(1 0 0 -1 0 343.6522)">
			<stop  offset="0" style="stop-color:#168D45"/>
			<stop  offset="1" style="stop-color:#138442"/>
		</linearGradient>
		<path style="fill:url(#SVGID_00000080917867877903124680000013179349134678665126_);" d="M714.29,274.24
			c-0.56,0.84-1.12,1.54-1.82,1.96c-0.56,0.42-1.4,0.7-2.38,0.7c-0.84,0-1.82-0.28-2.8-0.84c-0.98-0.56-2.1-1.12-3.36-1.82
			c-1.26-0.7-2.66-1.26-4.34-1.82c-1.54-0.56-3.5-0.84-5.46-0.84c-3.5,0-6.16,0.7-7.99,2.24c-1.68,1.54-2.66,3.5-2.66,6.16
			c0,1.68,0.56,2.94,1.54,4.06c0.98,1.12,2.38,1.96,4.06,2.8s3.64,1.54,5.88,2.1c2.24,0.7,4.48,1.4,6.72,2.24
			c2.24,0.84,4.48,1.68,6.72,2.8c2.24,1.12,4.06,2.52,5.88,4.2c1.68,1.68,3.08,3.78,4.06,6.16c0.98,2.38,1.54,5.32,1.54,8.69
			c0,3.78-0.7,7.28-1.96,10.65c-1.26,3.22-3.22,6.16-5.74,8.55c-2.52,2.38-5.6,4.34-9.25,5.74s-7.85,2.1-12.47,2.1
			c-2.52,0-5.18-0.28-7.71-0.84c-2.52-0.56-5.18-1.26-7.71-2.24s-4.76-2.1-7-3.36c-2.1-1.26-4.06-2.8-5.6-4.34l5.6-8.83
			c0.42-0.7,0.98-1.12,1.82-1.54c0.84-0.42,1.54-0.7,2.38-0.7c1.12,0,2.24,0.42,3.36,1.12c1.12,0.7,2.38,1.54,3.92,2.38
			c1.4,0.84,3.08,1.68,4.9,2.38c1.82,0.7,4.06,1.12,6.58,1.12c3.5,0,6.16-0.7,7.99-2.24c1.96-1.54,2.8-3.92,2.8-7.14
			c0-1.96-0.56-3.5-1.54-4.62c-0.98-1.26-2.38-2.24-4.06-2.94c-1.68-0.84-3.64-1.54-5.74-2.1c-2.1-0.56-4.34-1.26-6.72-1.96
			c-2.24-0.7-4.48-1.68-6.72-2.66c-2.1-1.12-4.06-2.52-5.74-4.2c-1.68-1.68-3.08-3.92-4.06-6.44c-0.98-2.66-1.54-5.74-1.54-9.67
			c0-3.08,0.56-6.02,1.82-8.97c1.26-2.94,3.08-5.46,5.46-7.85c2.38-2.24,5.32-4.06,8.83-5.46c3.5-1.4,7.42-2.1,11.91-2.1
			c2.52,0,4.9,0.14,7.28,0.56c2.38,0.42,4.62,0.98,6.72,1.68c2.1,0.7,4.06,1.68,6.02,2.8c1.96,1.12,3.5,2.24,4.9,3.64L714.29,274.24
			z"/>
		
			<linearGradient id="SVGID_00000059302287985345283690000006856533418052493440_" gradientUnits="userSpaceOnUse" x1="731.8043" y1="45.2484" x2="796.6664" y2="45.2484" gradientTransform="matrix(1 0 0 -1 0 343.6522)">
			<stop  offset="0" style="stop-color:#168D45"/>
			<stop  offset="1" style="stop-color:#138442"/>
		</linearGradient>
		<path style="fill:url(#SVGID_00000059302287985345283690000006856533418052493440_);" d="M796.67,272.56h-22.97v66.68h-18.91
			v-66.68H731.8v-14.99h64.86L796.67,272.56L796.67,272.56z"/>
		
			<linearGradient id="SVGID_00000005976825692632478870000007316289619005141900_" gradientUnits="userSpaceOnUse" x1="812.9696" y1="45.2484" x2="884.2477" y2="45.2484" gradientTransform="matrix(1 0 0 -1 0 343.6522)">
			<stop  offset="0" style="stop-color:#168D45"/>
			<stop  offset="1" style="stop-color:#138442"/>
		</linearGradient>
		<path style="fill:url(#SVGID_00000005976825692632478870000007316289619005141900_);" d="M884.22,257.57v81.67h-9.81
			c-1.4,0-2.66-0.28-3.64-0.7c-0.98-0.42-1.96-1.26-2.94-2.38l-38.53-48.75c0.14,1.4,0.28,2.8,0.28,4.2s0.14,2.66,0.14,3.78v43.85
			h-16.67v-81.67H823c0.84,0,1.54,0,2.1,0.14c0.56,0.14,1.12,0.28,1.54,0.42c0.42,0.14,0.84,0.56,1.26,0.84
			c0.42,0.42,0.84,0.84,1.4,1.54l38.81,49.03c-0.14-1.54-0.28-3.08-0.42-4.62c-0.14-1.54-0.14-2.8-0.14-4.2v-43.15L884.22,257.57
			L884.22,257.57z"/>
		
			<linearGradient id="SVGID_00000046337467367862317230000007542782242905043375_" gradientUnits="userSpaceOnUse" x1="906.7781" y1="45.2484" x2="959.3122" y2="45.2484" gradientTransform="matrix(1 0 0 -1 0 343.6522)">
			<stop  offset="0" style="stop-color:#168D45"/>
			<stop  offset="1" style="stop-color:#138442"/>
		</linearGradient>
		<path style="fill:url(#SVGID_00000046337467367862317230000007542782242905043375_);" d="M925.83,272.14v19.05h25.64v14.01h-25.64
			v19.47h33.48v14.57h-52.53v-81.67h52.53v14.57L925.83,272.14L925.83,272.14z"/>
		
			<linearGradient id="SVGID_00000069385966782802263890000007500097035872703422_" gradientUnits="userSpaceOnUse" x1="971.5001" y1="45.2484" x2="1036.3623" y2="45.2484" gradientTransform="matrix(1 0 0 -1 0 343.6522)">
			<stop  offset="0" style="stop-color:#168D45"/>
			<stop  offset="1" style="stop-color:#138442"/>
		</linearGradient>
		<path style="fill:url(#SVGID_00000069385966782802263890000007500097035872703422_);" d="M1036.36,272.56h-22.97v66.68h-18.91
			v-66.68H971.5v-14.99h64.86L1036.36,272.56L1036.36,272.56z"/>
		
			<linearGradient id="SVGID_00000080167797495689039940000017483787527512421773_" gradientUnits="userSpaceOnUse" x1="1081.8917" y1="45.2484" x2="1153.1981" y2="45.2484" gradientTransform="matrix(1 0 0 -1 0 343.6522)">
			<stop  offset="0" style="stop-color:#168D45"/>
			<stop  offset="1" style="stop-color:#138442"/>
		</linearGradient>
		<path style="fill:url(#SVGID_00000080167797495689039940000017483787527512421773_);" d="M1153.2,257.57v81.67h-9.81
			c-1.4,0-2.66-0.28-3.64-0.7s-1.96-1.26-2.94-2.38l-38.67-48.75c0.14,1.4,0.28,2.8,0.28,4.2s0.14,2.66,0.14,3.78v43.85h-16.67
			v-81.67h9.95c0.84,0,1.54,0,2.1,0.14c0.56,0.14,1.12,0.28,1.54,0.42c0.42,0.14,0.84,0.56,1.26,0.84c0.42,0.42,0.84,0.84,1.4,1.54
			l38.81,49.03c-0.14-1.54-0.28-3.08-0.42-4.62c-0.14-1.54-0.14-2.8-0.14-4.2v-43.15L1153.2,257.57L1153.2,257.57z"/>
		
			<linearGradient id="SVGID_00000033353360630616006550000014258385866886983065_" gradientUnits="userSpaceOnUse" x1="1175.6906" y1="45.2484" x2="1228.2246" y2="45.2484" gradientTransform="matrix(1 0 0 -1 0 343.6522)">
			<stop  offset="0" style="stop-color:#168D45"/>
			<stop  offset="1" style="stop-color:#138442"/>
		</linearGradient>
		<path style="fill:url(#SVGID_00000033353360630616006550000014258385866886983065_);" d="M1194.81,272.14v19.05h25.64v14.01
			h-25.64v19.47h33.48v14.57h-52.53v-81.67h52.53v14.57L1194.81,272.14L1194.81,272.14z"/>
		
			<linearGradient id="SVGID_00000003106321807380990730000006869163544520355486_" gradientUnits="userSpaceOnUse" x1="1240.4749" y1="45.2484" x2="1305.337" y2="45.2484" gradientTransform="matrix(1 0 0 -1 0 343.6522)">
			<stop  offset="0" style="stop-color:#168D45"/>
			<stop  offset="1" style="stop-color:#138442"/>
		</linearGradient>
		<path style="fill:url(#SVGID_00000003106321807380990730000006869163544520355486_);" d="M1305.34,272.56h-22.97v66.68h-18.91
			v-66.68h-22.97v-14.99h64.86V272.56z"/>
		
			<linearGradient id="SVGID_00000000209208126004080930000000095958325618378124_" gradientUnits="userSpaceOnUse" x1="1313.8826" y1="45.3185" x2="1432.8199" y2="45.3185" gradientTransform="matrix(1 0 0 -1 0 343.6522)">
			<stop  offset="0" style="stop-color:#168D45"/>
			<stop  offset="1" style="stop-color:#138442"/>
		</linearGradient>
		<path style="fill:url(#SVGID_00000000209208126004080930000000095958325618378124_);" d="M1432.82,257.57l-25.22,81.67h-17.09
			l-15.41-50.57c-0.28-0.84-0.56-1.68-0.84-2.66c-0.28-0.98-0.56-1.96-0.84-2.94c-0.28,0.98-0.56,2.1-0.84,2.94
			c-0.28,0.98-0.56,1.82-0.84,2.66l-15.55,50.57h-17.09l-25.22-81.67h15.97c1.68,0,3.08,0.42,4.06,1.12c1.12,0.7,1.82,1.68,2.1,2.94
			l11.21,42.59c0.28,1.4,0.7,2.8,0.98,4.34c0.28,1.54,0.7,3.22,0.98,4.9c0.7-3.5,1.54-6.58,2.52-9.39l13.17-42.59
			c0.28-0.98,1.12-1.96,2.1-2.8c1.12-0.84,2.38-1.26,4.06-1.26h5.6c1.68,0,2.94,0.42,3.92,1.12c0.98,0.7,1.82,1.68,2.24,2.94
			l13.17,42.59c0.98,2.66,1.82,5.6,2.52,8.97c0.28-1.68,0.56-3.22,0.98-4.76c0.28-1.54,0.7-2.8,0.98-4.2l11.21-42.59
			c0.28-1.12,0.98-2.1,2.1-2.8c1.12-0.84,2.52-1.26,4.06-1.26h14.99V257.57z"/>
		
			<linearGradient id="SVGID_00000108305470451434784720000003899454850452683156_" gradientUnits="userSpaceOnUse" x1="1440.9098" y1="45.2485" x2="1525.8048" y2="45.2485" gradientTransform="matrix(1 0 0 -1 0 343.6522)">
			<stop  offset="0" style="stop-color:#168D45"/>
			<stop  offset="1" style="stop-color:#138442"/>
		</linearGradient>
		<path style="fill:url(#SVGID_00000108305470451434784720000003899454850452683156_);" d="M1525.7,298.33
			c0,5.88-0.98,11.35-3.08,16.53c-2.1,5.04-4.9,9.53-8.55,13.31c-3.64,3.78-8.13,6.72-13.31,8.83c-5.18,2.1-10.93,3.22-17.37,3.22
			c-6.44,0-12.19-1.12-17.37-3.22c-5.18-2.1-9.67-5.04-13.45-8.83c-3.78-3.78-6.58-8.13-8.69-13.31c-2.1-5.04-3.08-10.51-3.08-16.53
			c0-5.88,0.98-11.35,3.08-16.53c2.1-5.04,4.9-9.53,8.69-13.17c3.78-3.78,8.13-6.72,13.45-8.83c5.18-2.1,11.07-3.22,17.37-3.22
			s12.19,1.12,17.37,3.22c5.18,2.1,9.67,5.04,13.31,8.83c3.64,3.78,6.58,8.13,8.55,13.17
			C1524.72,286.99,1525.7,292.59,1525.7,298.33z M1506.37,298.33c0-4.06-0.56-7.71-1.54-10.93c-0.98-3.22-2.52-6.02-4.48-8.27
			c-1.96-2.24-4.34-3.92-7.14-5.18c-2.8-1.26-6.02-1.82-9.67-1.82s-6.86,0.56-9.81,1.82c-2.8,1.26-5.32,2.94-7.28,5.18
			c-1.96,2.24-3.5,5.04-4.48,8.27c-0.98,3.22-1.54,6.86-1.54,10.93s0.56,7.7,1.54,10.93s2.52,6.02,4.48,8.27
			c1.96,2.24,4.34,3.92,7.28,5.18s6.16,1.82,9.81,1.82s6.86-0.56,9.67-1.82c2.8-1.26,5.18-2.94,7.14-5.18s3.5-5.04,4.48-8.27
			C1505.81,306.18,1506.37,302.4,1506.37,298.33z"/>
		
			<linearGradient id="SVGID_00000179620163619404619350000003892352990313277569_" gradientUnits="userSpaceOnUse" x1="1543.6318" y1="45.2484" x2="1610.4552" y2="45.2484" gradientTransform="matrix(1 0 0 -1 0 343.6522)">
			<stop  offset="0" style="stop-color:#168D45"/>
			<stop  offset="1" style="stop-color:#138442"/>
		</linearGradient>
		<path style="fill:url(#SVGID_00000179620163619404619350000003892352990313277569_);" d="M1610.46,339.24h-17.09
			c-3.22,0-5.46-1.26-6.86-3.64l-13.59-23.68c-0.7-0.98-1.4-1.68-2.1-2.24c-0.84-0.42-1.96-0.7-3.36-0.7h-4.76v30.26h-19.05v-81.67
			h26.62c5.88,0,10.93,0.56,15.13,1.82c4.2,1.26,7.56,2.94,10.23,5.04c2.66,2.1,4.48,4.76,5.74,7.71c1.26,2.94,1.82,6.16,1.82,9.67
			c0,2.66-0.42,5.18-1.12,7.56c-0.7,2.38-1.82,4.48-3.08,6.58c-1.4,1.96-3.08,3.78-5.18,5.32c-2.1,1.54-4.34,2.8-7,3.92
			c1.26,0.7,2.38,1.4,3.5,2.38c1.12,0.98,2.1,2.1,2.94,3.36L1610.46,339.24z M1570.25,295.95c2.52,0,4.76-0.28,6.58-0.98
			c1.82-0.7,3.36-1.54,4.48-2.66c1.12-1.12,1.96-2.52,2.52-4.06c0.56-1.54,0.84-3.22,0.84-5.04c0-3.64-1.12-6.44-3.5-8.41
			s-5.88-3.08-10.79-3.08h-7.56v24.24H1570.25z"/>
		
			<linearGradient id="SVGID_00000183956641545887039970000014798818533093300410_" gradientUnits="userSpaceOnUse" x1="1624.0442" y1="45.2485" x2="1697.1158" y2="45.2485" gradientTransform="matrix(1 0 0 -1 0 343.6522)">
			<stop  offset="0" style="stop-color:#168D45"/>
			<stop  offset="1" style="stop-color:#138442"/>
		</linearGradient>
		<path style="fill:url(#SVGID_00000183956641545887039970000014798818533093300410_);" d="M1642.96,290.63h3.08
			c2.8,0,4.76-0.84,6.02-2.66l18.35-26.62c1.12-1.4,2.24-2.38,3.5-2.94c1.26-0.56,2.8-0.84,4.62-0.84h16.53l-24.24,33.06
			c-1.68,2.24-3.5,3.92-5.6,4.9c1.4,0.56,2.66,1.26,3.92,2.24c1.12,0.98,2.24,2.1,3.22,3.64l24.66,37.82h-16.95
			c-1.12,0-1.96-0.14-2.8-0.28c-0.7-0.14-1.4-0.42-1.96-0.7c-0.56-0.28-0.98-0.7-1.4-1.12c-0.42-0.42-0.84-0.98-1.12-1.54
			l-18.49-28.44c-0.7-0.98-1.54-1.82-2.52-2.24s-2.38-0.7-4.2-0.7h-4.62v35.02h-18.91v-81.67h18.91V290.63z"/>
	</g>
</g>
</svg>
