<?xml version="1.0" encoding="utf-8"?>
<!-- Generator: Adobe Illustrator 25.0.0, SVG Export Plug-In . SVG Version: 6.00 Build 0)  -->
<svg version="1.1" id="Layer_1" xmlns="http://www.w3.org/2000/svg" xmlns:xlink="http://www.w3.org/1999/xlink" x="0px" y="0px"
	 viewBox="0 0 512 512" style="enable-background:new 0 0 512 512;" xml:space="preserve">
<style type="text/css">
	.st0{fill:none;stroke:#0D863D;stroke-width:15;stroke-miterlimit:10;}
	.st1{fill:none;stroke:#0D863D;stroke-width:8;stroke-miterlimit:10;}
	.st2{fill:#0D863D;}
	.st3{fill:none;stroke:#0D863D;stroke-miterlimit:10;}
	.st4{fill:none;stroke:#0D863D;stroke-width:4;stroke-miterlimit:10;}
	.st5{fill:none;stroke:#0D863D;stroke-width:15;stroke-linecap:round;stroke-linejoin:round;stroke-miterlimit:10;}
	.st6{fill:url(#SVGID_1_);}
	.st7{fill:url(#SVGID_2_);}
	.st8{fill:url(#SVGID_3_);}
	.st9{fill:url(#SVGID_4_);}
	.st10{fill:url(#SVGID_5_);}
	.st11{fill:url(#SVGID_6_);}
	.st12{fill:url(#SVGID_7_);}
	.st13{fill:url(#SVGID_8_);}
	.st14{fill:url(#SVGID_9_);}
	.st15{fill:url(#SVGID_10_);}
	.st16{fill:#13C670;}
	.st17{fill:url(#SVGID_11_);}
	.st18{fill:#206529;}
	.st19{fill:#195521;}
	.st20{fill:url(#SVGID_12_);}
	.st21{fill:url(#SVGID_13_);}
	.st22{fill:url(#SVGID_14_);}
	.st23{fill:url(#SVGID_15_);}
	.st24{fill:url(#SVGID_16_);}
	.st25{fill:url(#SVGID_17_);}
	.st26{fill:url(#SVGID_18_);}
	.st27{fill:url(#SVGID_19_);}
	.st28{fill:url(#SVGID_20_);}
	.st29{fill:url(#SVGID_21_);}
	.st30{fill:url(#SVGID_22_);}
	.st31{fill:url(#SVGID_23_);}
	.st32{fill:url(#SVGID_24_);}
</style>
<g>
	<g>
		<path class="st2" d="M113.6,146.4l65.7-58.8l4.7-4.2l4.9,3.8l67.2,51.4l-2-1.1l59.3,21.7l-8,1.9l56.9-59.5c2.9-3,7.6-3.1,10.6-0.2
			c3,2.9,3.1,7.6,0.2,10.6l-56.9,59.5l-3.4,3.6l-4.6-1.7l-59.3-21.7l-1.1-0.4l-0.9-0.7l-67.2-51.4l9.6-0.4l-64.8,59.8
			c-3.3,3-8.4,2.8-11.5-0.5S110.2,149.5,113.6,146.4C113.5,146.5,113.5,146.4,113.6,146.4z"/>
		<g>
			<path class="st2" d="M395.8,77.3c-8.1,18.8-15.8,44.4-16.6,63.9l-15.2-30.6l-31.2-13.8C352.2,95.1,377.4,86.2,395.8,77.3z"/>
		</g>
	</g>
</g>
<path class="st2" d="M126.3,269.7v-73h10.9V269c3.2,0,6.4,0,9.6,0c0.3,0.1,0.6,0.2,0.8,0.2c1.5,0.1,3,0.3,4.5,0.5v-88.1h-40.9v91.7
	c1.4-0.5,2.7-0.9,4.1-1.4C119,270.9,122.6,270.3,126.3,269.7z"/>
<path class="st2" d="M290.2,451.8h40.9V200.9h-40.9V451.8z M305.2,231.5h10.9v189.7h-10.9V231.5z"/>
<path class="st2" d="M230.6,453h40.9V181.7h-40.9L230.6,453z M245.6,210.3h10.9v214h-10.9L245.6,210.3z"/>
<path class="st2" d="M349.9,147.8V453h40.9V147.8H349.9z M375.7,439h-10.9V163.8h10.9V439z"/>
<path class="st2" d="M185.9,282.1v-129h10.9l0,136.9c5.7,4.8,10.7,10.3,15,16.3l0-168.1h-40.9v136.6c4.3,1.7,8.6,3.7,12.7,6.1
	C184.4,281.2,185.2,281.7,185.9,282.1z"/>
<g>
	<path class="st2" d="M127,285.8c5.1,0,10.2,0,15.3,0c0.3,0.1,0.6,0.2,0.8,0.2c12.8,1.2,24.8,5.1,36,11.5
		c35.6,20.4,52.8,62.7,41.4,102.1c-12.7,44.1-56.5,71.3-101.6,63.4c-33.9-6-61.6-31.4-70.6-64.6c-1.4-5.3-2.3-10.7-2.9-16.1
		c0-5,0-10,0-15c0.4-2.8,0.7-5.6,1.3-8.4c7.8-35.8,29.2-59.2,64.2-70.1C116.2,287.2,121.6,286.5,127,285.8z M71.3,369.6
		c4.2,0,8.4-0.1,12.5,0c1.7,0,2.3-0.4,2.4-2.2c0.2-4,0.6-8.1,1.1-12.1c0.9-6.9,2.3-13.7,4.3-20.4c0.3-1.1,0.2-1.7-1-2.1
		c-5.4-1.9-10.5-4.2-15.5-7c-0.9-0.5-1.5-0.4-2.1,0.4c-0.3,0.5-0.7,0.9-1.1,1.4c-8.9,11.9-14.1,25.2-15.6,40c-0.1,1.4,0.2,2,1.8,2
		C62.6,369.6,66.9,369.6,71.3,369.6z M198,369.6c3.8,0,7.5,0,11.3,0c3.3,0,3.8,0.7,3.3-3.7c-1.8-14.7-7.2-27.8-16.2-39.4
		c-0.8-1-1.4-1.2-2.6-0.6c-4.8,2.6-9.7,4.9-14.9,6.7c-1.4,0.5-1.7,1.2-1.3,2.6c3.2,10.6,4.8,21.5,5.5,32.5c0.1,1.4,0.6,1.9,2,1.9
		C189.4,369.6,193.7,369.6,198,369.6z M71.3,380.3c-3.7,0-7.4,0-11.1,0c-3.5,0-4-0.7-3.4,3.7c1.8,14.7,7.2,27.7,16.3,39.4
		c0.8,1,1.5,1.2,2.6,0.5c4.7-2.6,9.6-4.9,14.7-6.6c1.5-0.5,1.8-1.2,1.4-2.7c-3.2-10.5-4.8-21.4-5.4-32.3c-0.1-1.6-0.7-2-2.2-2
		C79.7,380.4,75.5,380.3,71.3,380.3z M198.3,380.3c-4.3,0-8.6,0-12.9,0c-1.5,0-2.1,0.4-2.2,2c-0.6,11-2.2,21.8-5.4,32.3
		c-0.5,1.5-0.1,2.2,1.4,2.7c5,1.7,9.7,3.9,14.3,6.4c1.5,0.8,2.3,0.7,3.4-0.7c9.2-12.1,14.6-25.6,16.1-40.7c0.1-1.4-0.2-2-1.7-2
		C206.8,380.4,202.5,380.3,198.3,380.3z M113.1,369.6c4.8,0,9.6,0,14.4,0c1.1,0,1.8-0.3,1.8-1.5c0-8.8,0-17.5,0-26.3
		c0-1.1-0.5-1.5-1.6-1.6c-7.9-0.5-15.8-1.5-23.5-3.4c-1.1-0.3-1.7,0-2,1.2c-2.8,9.6-4.5,19.4-5,29.4c-0.1,2.2,0,2.3,2.2,2.3
		C103.9,369.6,108.5,369.6,113.1,369.6z M113.3,380.3c-4.5,0-8.9,0-13.4,0c-2.8,0-2.8,0-2.7,2.8c0,1.3,0.2,2.5,0.3,3.8
		c0.7,8.5,2.3,16.7,4.6,24.9c0.4,1.3,1,1.6,2.3,1.3c7.6-1.9,15.3-2.9,23-3.4c1.4-0.1,1.9-0.6,1.9-2c0-8.5-0.1-16.9,0-25.4
		c0-1.6-0.6-2.1-2.2-2.1C122.5,380.4,117.9,380.3,113.3,380.3z M156.1,369.6c4.8,0,9.5,0,14.3,0c1.4,0,1.9-0.5,1.8-1.8
		c-0.1-1.5-0.2-3-0.3-4.5c-0.7-8.5-2.3-16.9-4.6-25.1c-0.4-1.3-1-1.7-2.4-1.4c-7.5,1.9-15.1,2.8-22.8,3.4c-1.6,0.1-2.1,0.7-2,2.2
		c0.1,8.4,0.1,16.8,0,25.2c0,1.5,0.5,2.1,2,2C146.7,369.6,151.4,369.6,156.1,369.6z M156.3,380.3c-4.8,0-9.6,0-14.4,0
		c-1.2,0-1.8,0.4-1.8,1.7c0,8.6,0,17.3,0,25.9c0,1.3,0.5,1.7,1.7,1.8c7.9,0.5,15.7,1.5,23.4,3.4c1.1,0.3,1.7,0,2-1.1
		c2.8-9.7,4.5-19.5,5.1-29.6c0.1-1.7-0.6-2.2-2.2-2.2C165.4,380.4,160.8,380.3,156.3,380.3z M129.3,313.4c0-4,0-8,0-12
		c0-1.1,0.6-2.7-0.4-3.2c-1-0.5-2.2,0.8-3.2,1.4c-9,6.4-14.3,15.5-18.8,25.3c-0.4,1,0,1.3,1,1.6c6.3,1.4,12.8,2.3,19.3,2.8
		c1.7,0.1,2.2-0.6,2.2-2.2C129.3,322.5,129.3,318,129.3,313.4z M140,313.4c0,4.6,0.1,9.2,0,13.7c0,1.6,0.5,2.2,2.1,2.1
		c6.5-0.4,12.9-1.3,19.2-2.7c1.6-0.3,1.2-1.2,0.8-2.2c-2.8-6.3-6.2-12.2-10.6-17.5c-2.7-3.3-5.8-6.2-9.5-8.3c-1.7-1-2-0.8-2,1.1
		C140,304.3,140,308.9,140,313.4z M129.3,436.6c0-4.5,0-9.1,0-13.6c0-2.2-0.1-2.4-2.2-2.2c-6.3,0.4-12.6,1.3-18.8,2.6
		c-1.5,0.3-1.8,0.9-1.1,2.3c2.5,5.6,5.5,10.9,9.3,15.7c3.1,3.9,6.5,7.5,10.8,10c1.8,1,2,0.9,2-1.1
		C129.3,445.6,129.3,441.1,129.3,436.6z M140,436.6c0,4.6,0,9.2,0,13.8c0,1.8,0.2,2,1.9,1.1c1.1-0.6,2.1-1.3,3.1-2
		c8.1-6.4,13.2-15,17.4-24.2c0.5-1,0.1-1.5-1-1.7c-6.4-1.4-12.8-2.3-19.3-2.7c-1.6-0.1-2.1,0.5-2.1,2.1
		C140.1,427.4,140,432,140,436.6z M108.5,301.1c-0.4,0.1-0.6,0-0.7,0.1c-9.2,3.4-17.5,8.3-24.8,14.8c-1,0.9-0.6,1.3,0.3,1.7
		c3.6,1.8,7.3,3.4,11,4.8c1.3,0.5,1.9,0.2,2.4-1C99.6,314.3,103.5,307.5,108.5,301.1z M160.7,300.9c5.2,6.6,9,13.4,12.1,20.7
		c0.4,1.1,1,1.4,2.1,1c3.8-1.4,7.5-3,11.2-4.8c1.3-0.7,1.1-1.1,0.1-1.9c-2.3-1.9-4.6-3.8-7-5.4C173.6,306.5,167.6,303.4,160.7,300.9
		z M108.6,449c-5.2-6.7-9.1-13.6-12.3-21c-0.4-1-1-0.9-1.8-0.6c-3.9,1.4-7.7,3-11.3,4.9c-1.2,0.6-1,1.1-0.1,1.8
		c4.3,3.7,8.9,7,13.8,9.7C100.5,445.7,104.2,447.5,108.6,449z M161.1,448.8c9.5-3.3,18-8.3,25.5-15c0.9-0.8,0.3-1.1-0.4-1.5
		c-3.7-1.9-7.5-3.5-11.3-4.9c-1-0.4-1.6-0.2-2,0.8C169.8,435.5,165.9,442.4,161.1,448.8z"/>
</g>
</svg>
