<?xml version="1.0" encoding="utf-8"?>
<!-- Generator: Adobe Illustrator 25.0.0, SVG Export Plug-In . SVG Version: 6.00 Build 0)  -->
<svg version="1.1" id="Layer_1" xmlns="http://www.w3.org/2000/svg" xmlns:xlink="http://www.w3.org/1999/xlink" x="0px" y="0px"
	 viewBox="0 0 512 512" style="enable-background:new 0 0 512 512;" xml:space="preserve">
<style type="text/css">
	.st0{fill:none;stroke:#0D863D;stroke-width:15;stroke-miterlimit:10;}
	.st1{fill:none;stroke:#0D863D;stroke-width:8;stroke-miterlimit:10;}
	.st2{fill:#0D863D;}
	.st3{fill:none;stroke:#0D863D;stroke-miterlimit:10;}
	.st4{fill:none;stroke:#0D863D;stroke-width:4;stroke-miterlimit:10;}
	.st5{fill:none;stroke:#0D863D;stroke-width:15;stroke-linecap:round;stroke-linejoin:round;stroke-miterlimit:10;}
	.st6{fill:url(#SVGID_1_);}
	.st7{fill:url(#SVGID_2_);}
	.st8{fill:url(#SVGID_3_);}
	.st9{fill:url(#SVGID_4_);}
	.st10{fill:url(#SVGID_5_);}
	.st11{fill:url(#SVGID_6_);}
	.st12{fill:url(#SVGID_7_);}
	.st13{fill:url(#SVGID_8_);}
	.st14{fill:url(#SVGID_9_);}
	.st15{fill:url(#SVGID_10_);}
	.st16{fill:#13C670;}
	.st17{fill:url(#SVGID_11_);}
	.st18{fill:#206529;}
	.st19{fill:#195521;}
	.st20{fill:url(#SVGID_12_);}
	.st21{fill:url(#SVGID_13_);}
	.st22{fill:url(#SVGID_14_);}
	.st23{fill:url(#SVGID_15_);}
	.st24{fill:url(#SVGID_16_);}
	.st25{fill:url(#SVGID_17_);}
	.st26{fill:url(#SVGID_18_);}
	.st27{fill:url(#SVGID_19_);}
	.st28{fill:url(#SVGID_20_);}
	.st29{fill:url(#SVGID_21_);}
	.st30{fill:url(#SVGID_22_);}
	.st31{fill:url(#SVGID_23_);}
	.st32{fill:url(#SVGID_24_);}
</style>
<linearGradient id="SVGID_1_" gradientUnits="userSpaceOnUse" x1="193.4435" y1="187.8753" x2="502.9335" y2="187.8753" gradientTransform="matrix(1 0 0 -1 -96.25 453.35)">
	<stop  offset="0" style="stop-color:#108C42"/>
	<stop  offset="1" style="stop-color:#0C843B"/>
</linearGradient>
<path class="st6" d="M406.7,295.5v-145l-78.7-78.7H125.3c-15.5,0-28.1,12.6-28.1,28.1v331.3c0,15.5,12.6,28.1,28.1,28.1h253.3
	c15.5,0,28.1-12.6,28.1-28.1v-51.9h-15.3v51.9c0,7.1-5.7,12.8-12.8,12.8H125.3c-7.1,0-12.8-5.7-12.8-12.8V99.8
	c0-7.1,5.7-12.8,12.8-12.8h191.8v35c0,21.4,17.3,38.8,38.8,39l35.5,0.2v134.2H406.7z M355.9,145.7c-13-0.1-23.5-10.7-23.5-23.7V97.9
	l48,48L355.9,145.7z"/>
<linearGradient id="SVGID_2_" gradientUnits="userSpaceOnUse" x1="179.2135" y1="269.5403" x2="324.6635" y2="269.5403" gradientTransform="matrix(1 0 0 -1 0 514)">
	<stop  offset="0" style="stop-color:#108C42"/>
	<stop  offset="1" style="stop-color:#0C843B"/>
</linearGradient>
<rect x="179.2" y="236.8" class="st7" width="145.5" height="15.3"/>
<linearGradient id="SVGID_3_" gradientUnits="userSpaceOnUse" x1="179.2135" y1="226.7003" x2="324.6635" y2="226.7003" gradientTransform="matrix(1 0 0 -1 0 514)">
	<stop  offset="0" style="stop-color:#108C42"/>
	<stop  offset="1" style="stop-color:#0C843B"/>
</linearGradient>
<rect x="179.2" y="279.6" class="st8" width="145.5" height="15.3"/>
<linearGradient id="SVGID_4_" gradientUnits="userSpaceOnUse" x1="179.2135" y1="183.8703" x2="324.6635" y2="183.8703" gradientTransform="matrix(1 0 0 -1 0 514)">
	<stop  offset="0" style="stop-color:#108C42"/>
	<stop  offset="1" style="stop-color:#0C843B"/>
</linearGradient>
<rect x="179.2" y="322.5" class="st9" width="145.5" height="15.3"/>
<linearGradient id="SVGID_5_" gradientUnits="userSpaceOnUse" x1="179.2135" y1="141.0303" x2="324.6635" y2="141.0303" gradientTransform="matrix(1 0 0 -1 0 514)">
	<stop  offset="0" style="stop-color:#108C42"/>
	<stop  offset="1" style="stop-color:#0C843B"/>
</linearGradient>
<rect x="179.2" y="365.3" class="st10" width="145.5" height="15.3"/>
<polygon class="st16" points="359,371.7 398.5,307.7 398.5,353.7 "/>
<linearGradient id="SVGID_6_" gradientUnits="userSpaceOnUse" x1="-6314.7925" y1="371.7902" x2="-6344.7524" y2="428.2602" gradientTransform="matrix(-1 0 0 1 -5922.77 -58.65)">
	<stop  offset="0" style="stop-color:#108C42"/>
	<stop  offset="1" style="stop-color:#0C843B"/>
</linearGradient>
<polygon class="st11" points="438.1,371.7 398.5,307.7 398.5,353.7 "/>
<polygon class="st18" points="438.1,371.7 398.5,353.7 398.5,360.5 "/>
<polygon class="st19" points="359,371.7 398.5,353.7 398.5,360.5 "/>
<linearGradient id="SVGID_7_" gradientUnits="userSpaceOnUse" x1="275.3835" y1="241.3375" x2="285.1035" y2="241.3375" gradientTransform="matrix(1 0 0 -1 -96.25 453.35)">
	<stop  offset="0" style="stop-color:#108C42"/>
	<stop  offset="1" style="stop-color:#0C843B"/>
</linearGradient>
<path class="st12" d="M179.7,217.6c1.1,0.7,2.4,1,3.7,1c2.1,0,3.4-1.1,3.4-2.8c0-1.5-0.9-2.4-3-3.2c-2.6-1-4.2-2.3-4.2-4.6
	c0-2.5,2.1-4.4,5.2-4.4c1.2,0,2.4,0.2,3.5,0.8l-0.6,1.7c-0.9-0.5-2-0.8-3-0.8c-2.2,0-3,1.3-3,2.4c0,1.5,1,2.2,3.2,3.1
	c2.7,1,4.1,2.4,4.1,4.7s-1.8,4.6-5.6,4.6c-1.4,0-2.9-0.4-4.1-1.1L179.7,217.6z"/>
<linearGradient id="SVGID_8_" gradientUnits="userSpaceOnUse" x1="287.7935" y1="239.1421" x2="304.4036" y2="239.1421" gradientTransform="matrix(1 0 0 -1 -96.25 453.35)">
	<stop  offset="0" style="stop-color:#108C42"/>
	<stop  offset="1" style="stop-color:#0C843B"/>
</linearGradient>
<path class="st13" d="M191.6,211.7c0-1.2,0-2.2-0.1-3.1h1.8l0.1,1.9h0.1c0.7-1.3,2.1-2.2,3.6-2.1c1.5,0,2.8,0.9,3.2,2.3h0.1
	c0.3-0.6,0.8-1.1,1.3-1.5c0.7-0.6,1.6-0.8,2.5-0.8c1.6,0,3.8,1,3.8,5v6.8h-2.1v-6.5c0-2.2-0.8-3.6-2.5-3.6c-1.1,0-2.1,0.8-2.5,1.9
	c-0.1,0.3-0.2,0.7-0.2,1v7.1h-2v-6.9c0-1.8-0.8-3.1-2.4-3.1c-1.2,0.1-2.3,0.9-2.6,2.1c-0.1,0.3-0.2,0.7-0.2,1v7h-2.1L191.6,211.7z"
	/>
<linearGradient id="SVGID_9_" gradientUnits="userSpaceOnUse" x1="306.8735" y1="239.0011" x2="316.0635" y2="239.0011" gradientTransform="matrix(1 0 0 -1 -96.25 453.35)">
	<stop  offset="0" style="stop-color:#108C42"/>
	<stop  offset="1" style="stop-color:#0C843B"/>
</linearGradient>
<path class="st14" d="M219.7,217.3c0,0.9,0,1.9,0.2,2.8h-1.9l-0.2-1.5h-0.1c-0.8,1.1-2.1,1.7-3.5,1.7c-1.8,0.1-3.4-1.2-3.5-3.1
	c0-0.1,0-0.2,0-0.3c0-2.8,2.5-4.3,6.9-4.3v-0.2c0.2-1.3-0.8-2.5-2.1-2.6c-0.2,0-0.4,0-0.6,0c-1.1,0-2.1,0.3-3,0.9l-0.5-1.4
	c1.2-0.7,2.5-1,3.8-1c3.5,0,4.4,2.4,4.4,4.7L219.7,217.3z M217.7,214.2c-2.3,0-4.9,0.4-4.9,2.6c-0.1,1,0.7,1.9,1.7,2
	c0.1,0,0.2,0,0.3,0c1.3,0,2.4-0.7,2.8-1.9c0.1-0.2,0.1-0.4,0.1-0.7L217.7,214.2z"/>
<linearGradient id="SVGID_10_" gradientUnits="userSpaceOnUse" x1="319.1835" y1="239.0906" x2="324.9836" y2="239.0906" gradientTransform="matrix(1 0 0 -1 -96.25 453.35)">
	<stop  offset="0" style="stop-color:#108C42"/>
	<stop  offset="1" style="stop-color:#0C843B"/>
</linearGradient>
<path class="st15" d="M223,212.2c0-1.4,0-2.5-0.1-3.6h1.8l0.1,2.3h0.1c0.4-1.7,2.1-2.8,3.8-2.5v2c-0.2,0-0.5,0-0.7,0
	c-1.5,0-2.7,1.2-2.8,2.7c-0.1,0.3-0.1,0.7-0.1,1v6.2H223L223,212.2z"/>
<linearGradient id="SVGID_11_" gradientUnits="userSpaceOnUse" x1="326.3435" y1="240.2686" x2="333.1935" y2="240.2686" gradientTransform="matrix(1 0 0 -1 -96.25 453.35)">
	<stop  offset="0" style="stop-color:#108C42"/>
	<stop  offset="1" style="stop-color:#0C843B"/>
</linearGradient>
<path class="st17" d="M233.9,205.8v2.8h3v1.6h-3v6.2c0,1.4,0.4,2.2,1.6,2.2c0.4,0,0.8,0,1.2-0.1l0.1,1.6c-0.6,0.2-1.2,0.3-1.9,0.3
	c-0.8,0-1.7-0.3-2.3-0.9c-0.6-0.9-0.9-1.9-0.8-3v-6.3h-1.8v-1.6h1.8v-2.1L233.9,205.8z"/>
<linearGradient id="SVGID_12_" gradientUnits="userSpaceOnUse" x1="339.7235" y1="241.2857" x2="351.9435" y2="241.2857" gradientTransform="matrix(1 0 0 -1 -96.25 453.35)">
	<stop  offset="0" style="stop-color:#108C42"/>
	<stop  offset="1" style="stop-color:#0C843B"/>
</linearGradient>
<path class="st20" d="M255.6,219.6c-1.3,0.6-2.8,0.8-4.2,0.8c-4.5,0-7.9-2.9-7.9-8.2c0-5.1,3.4-8.4,8.4-8.4c1.3-0.1,2.6,0.2,3.8,0.7
	l-0.5,1.7c-1-0.5-2.1-0.7-3.2-0.7c-3.8,0-6.3,2.4-6.3,6.6c0,4,2.3,6.5,6.1,6.5c1.2,0,2.3-0.2,3.4-0.7L255.6,219.6z"/>
<linearGradient id="SVGID_13_" gradientUnits="userSpaceOnUse" x1="353.3435" y1="239.0053" x2="364.6335" y2="239.0053" gradientTransform="matrix(1 0 0 -1 -96.25 453.35)">
	<stop  offset="0" style="stop-color:#108C42"/>
	<stop  offset="1" style="stop-color:#0C843B"/>
</linearGradient>
<path class="st21" d="M268.4,214.2c0,4.3-3,6.1-5.8,6.1c-3.1,0-5.5-2.3-5.5-5.9c0-3.8,2.6-6.1,5.7-6.1S268.4,210.7,268.4,214.2z
	 M259.2,214.4c0,2.5,1.4,4.4,3.5,4.4s3.5-1.9,3.5-4.5c0-2-1-4.4-3.5-4.4S259.2,212.2,259.2,214.4L259.2,214.4z"/>
<linearGradient id="SVGID_14_" gradientUnits="userSpaceOnUse" x1="367.1835" y1="239.1011" x2="377.1136" y2="239.1011" gradientTransform="matrix(1 0 0 -1 -96.25 453.35)">
	<stop  offset="0" style="stop-color:#108C42"/>
	<stop  offset="1" style="stop-color:#0C843B"/>
</linearGradient>
<path class="st22" d="M271,211.7c0-1.2,0-2.2-0.1-3.1h1.9l0.1,1.9l0,0c0.8-1.4,2.2-2.2,3.8-2.1c1.6,0,4.1,1,4.1,4.9v6.9h-2.1v-6.7
	c0-1.9-0.7-3.4-2.7-3.4c-1.3,0-2.4,0.9-2.8,2.1c-0.1,0.3-0.2,0.7-0.1,1v7H271L271,211.7z"/>
<linearGradient id="SVGID_15_" gradientUnits="userSpaceOnUse" x1="379.1036" y1="240.2688" x2="385.9636" y2="240.2688" gradientTransform="matrix(1 0 0 -1 -96.25 453.35)">
	<stop  offset="0" style="stop-color:#108C42"/>
	<stop  offset="1" style="stop-color:#0C843B"/>
</linearGradient>
<path class="st23" d="M286.7,205.8v2.8h3v1.6h-3v6.2c0,1.4,0.4,2.2,1.6,2.2c0.4,0,0.8,0,1.2-0.1l0.1,1.6c-0.6,0.2-1.2,0.3-1.9,0.3
	c-0.8,0-1.7-0.3-2.3-0.9c-0.6-0.9-0.9-1.9-0.8-3v-6.3h-1.8v-1.6h1.8v-2.1L286.7,205.8z"/>
<linearGradient id="SVGID_16_" gradientUnits="userSpaceOnUse" x1="388.2235" y1="239.0903" x2="394.0235" y2="239.0903" gradientTransform="matrix(1 0 0 -1 -96.25 453.35)">
	<stop  offset="0" style="stop-color:#108C42"/>
	<stop  offset="1" style="stop-color:#0C843B"/>
</linearGradient>
<path class="st24" d="M292.1,212.2c0-1.4,0-2.5-0.1-3.6h1.8l0.1,2.3h0c0.4-1.5,1.7-2.5,3.2-2.5c0.2,0,0.4,0,0.6,0.1v2
	c-0.2,0-0.5,0-0.7,0c-1.5,0-2.7,1.2-2.8,2.7c-0.1,0.3-0.1,0.7-0.1,1v6.2H292L292.1,212.2z"/>
<linearGradient id="SVGID_17_" gradientUnits="userSpaceOnUse" x1="395.0934" y1="238.9946" x2="404.2836" y2="238.9946" gradientTransform="matrix(1 0 0 -1 -96.25 453.35)">
	<stop  offset="0" style="stop-color:#108C42"/>
	<stop  offset="1" style="stop-color:#0C843B"/>
</linearGradient>
<path class="st25" d="M307.9,217.3c0,0.9,0,1.9,0.2,2.8h-1.9l-0.2-1.5h0c-0.8,1.1-2.1,1.8-3.5,1.7c-1.8,0.2-3.4-1.2-3.6-3
	c0-0.1,0-0.2,0-0.3c0-2.8,2.5-4.3,6.9-4.3v-0.2c0.2-1.3-0.7-2.5-2-2.6c-0.2,0-0.4,0-0.6,0c-1.1,0-2.1,0.3-3,0.9l-0.5-1.4
	c1.2-0.7,2.5-1,3.8-1c3.5,0,4.4,2.4,4.4,4.7L307.9,217.3z M305.9,214.2c-2.3,0-4.9,0.4-4.9,2.6c-0.1,1,0.7,1.9,1.7,2
	c0.1,0,0.2,0,0.3,0c1.3,0,2.4-0.7,2.8-1.9c0.1-0.2,0.1-0.4,0.1-0.7L305.9,214.2z"/>
<linearGradient id="SVGID_18_" gradientUnits="userSpaceOnUse" x1="406.6563" y1="239.0095" x2="415.7836" y2="239.0095" gradientTransform="matrix(1 0 0 -1 -96.25 453.35)">
	<stop  offset="0" style="stop-color:#108C42"/>
	<stop  offset="1" style="stop-color:#0C843B"/>
</linearGradient>
<path class="st26" d="M319.5,219.7c-1,0.5-2.2,0.7-3.3,0.7c-3.5,0-5.8-2.4-5.8-5.9c-0.2-3.2,2.3-6,5.6-6.2c0.2,0,0.4,0,0.6,0
	c1,0,2,0.2,2.9,0.6l-0.5,1.6c-0.8-0.4-1.6-0.6-2.4-0.6c-2.6,0-4.1,2-4.1,4.4c0,2.7,1.7,4.3,4,4.3c0.9,0,1.8-0.2,2.6-0.6L319.5,219.7
	z"/>
<linearGradient id="SVGID_19_" gradientUnits="userSpaceOnUse" x1="417.1835" y1="240.2686" x2="424.0335" y2="240.2686" gradientTransform="matrix(1 0 0 -1 -96.25 453.35)">
	<stop  offset="0" style="stop-color:#108C42"/>
	<stop  offset="1" style="stop-color:#0C843B"/>
</linearGradient>
<path class="st27" d="M324.8,205.8v2.8h3v1.6h-3v6.2c0,1.4,0.4,2.2,1.6,2.2c0.4,0,0.8,0,1.2-0.1l0.1,1.6c-0.6,0.2-1.2,0.3-1.9,0.3
	c-0.8,0-1.7-0.3-2.3-0.9c-0.6-0.9-0.9-1.9-0.8-3v-6.3h-1.8v-1.6h1.8v-2.1L324.8,205.8z"/>
</svg>
