<?xml version="1.0" encoding="utf-8"?>
<!-- Generator: Adobe Illustrator 25.0.0, SVG Export Plug-In . SVG Version: 6.00 Build 0)  -->
<svg version="1.1" id="Layer_1" xmlns="http://www.w3.org/2000/svg" xmlns:xlink="http://www.w3.org/1999/xlink" x="0px" y="0px"
	 viewBox="0 0 512 512" style="enable-background:new 0 0 512 512;" xml:space="preserve">
<style type="text/css">
	.st0{fill:none;stroke:#0D863D;stroke-width:15;stroke-miterlimit:10;}
	.st1{fill:none;stroke:#0D863D;stroke-width:8;stroke-miterlimit:10;}
	.st2{fill:#0D863D;}
	.st3{fill:none;stroke:#0D863D;stroke-miterlimit:10;}
	.st4{fill:none;stroke:#0D863D;stroke-width:4;stroke-miterlimit:10;}
	.st5{fill:none;stroke:#0D863D;stroke-width:15;stroke-linecap:round;stroke-linejoin:round;stroke-miterlimit:10;}
	.st6{fill:url(#SVGID_1_);}
	.st7{fill:url(#SVGID_2_);}
	.st8{fill:url(#SVGID_3_);}
	.st9{fill:url(#SVGID_4_);}
	.st10{fill:url(#SVGID_5_);}
	.st11{fill:url(#SVGID_6_);}
	.st12{fill:url(#SVGID_7_);}
	.st13{fill:url(#SVGID_8_);}
	.st14{fill:url(#SVGID_9_);}
	.st15{fill:url(#SVGID_10_);}
	.st16{fill:#13C670;}
	.st17{fill:url(#SVGID_11_);}
	.st18{fill:#206529;}
	.st19{fill:#195521;}
	.st20{fill:url(#SVGID_12_);}
	.st21{fill:url(#SVGID_13_);}
	.st22{fill:url(#SVGID_14_);}
	.st23{fill:url(#SVGID_15_);}
	.st24{fill:url(#SVGID_16_);}
	.st25{fill:url(#SVGID_17_);}
	.st26{fill:url(#SVGID_18_);}
	.st27{fill:url(#SVGID_19_);}
	.st28{fill:url(#SVGID_20_);}
	.st29{fill:url(#SVGID_21_);}
	.st30{fill:url(#SVGID_22_);}
	.st31{fill:url(#SVGID_23_);}
	.st32{fill:url(#SVGID_24_);}
</style>
<linearGradient id="SVGID_1_" gradientUnits="userSpaceOnUse" x1="101.3523" y1="266.615" x2="410.8423" y2="266.615">
	<stop  offset="0" style="stop-color:#108C42"/>
	<stop  offset="1" style="stop-color:#0C843B"/>
</linearGradient>
<path class="st6" d="M370.2,146.9l-7.3,0v15.3l7.3,0l8,0V147L370.2,146.9z M373.2,114l-41.1-41.1H129.5c-15.5,0-28.1,12.6-28.1,28.1
	v331.3c0,15.5,12.6,28.1,28.1,28.1h253.3c15.5,0,28.1-12.6,28.1-28.1V151.6L373.2,114z M336.6,99l15,15l26.6,26.6l6.4,6.4l-6.4,0
	l-8,0l-7.3,0l-2.7,0c-7.8-0.1-14.6-3.9-18.9-9.7c-1.7-2.3-3-5-3.8-7.9c-0.5-1.9-0.8-4-0.8-6.1V99z M395.5,432.3
	c0,7.1-5.7,12.8-12.8,12.8H129.5c-7.1,0-12.8-5.7-12.8-12.8V101c0-7,5.7-12.8,12.8-12.8h191.8v35c0,2.1,0.2,4.1,0.5,6.1
	c0.4,2.7,1.1,5.4,2.1,7.9c5.6,14.5,19.7,24.9,36.2,25l2.8,0l7.3,0l8,0l7.3,0l10,0.1V432.3z M370.2,146.9l-7.3,0v15.3l7.3,0l8,0V147
	L370.2,146.9z"/>
<linearGradient id="SVGID_2_" gradientUnits="userSpaceOnUse" x1="183.3723" y1="274.4021" x2="328.8223" y2="274.4021" gradientTransform="matrix(1 0 0 -1 0 514)">
	<stop  offset="0" style="stop-color:#108C42"/>
	<stop  offset="1" style="stop-color:#0C843B"/>
</linearGradient>
<rect x="183.4" y="231.9" class="st7" width="145.5" height="15.3"/>
<linearGradient id="SVGID_3_" gradientUnits="userSpaceOnUse" x1="183.3723" y1="231.5621" x2="328.8223" y2="231.5621" gradientTransform="matrix(1 0 0 -1 0 514)">
	<stop  offset="0" style="stop-color:#108C42"/>
	<stop  offset="1" style="stop-color:#0C843B"/>
</linearGradient>
<rect x="183.4" y="274.8" class="st8" width="145.5" height="15.3"/>
<linearGradient id="SVGID_4_" gradientUnits="userSpaceOnUse" x1="183.3723" y1="188.7321" x2="328.8223" y2="188.7321" gradientTransform="matrix(1 0 0 -1 0 514)">
	<stop  offset="0" style="stop-color:#108C42"/>
	<stop  offset="1" style="stop-color:#0C843B"/>
</linearGradient>
<rect x="183.4" y="317.6" class="st9" width="145.5" height="15.3"/>
<linearGradient id="SVGID_5_" gradientUnits="userSpaceOnUse" x1="183.3723" y1="145.8921" x2="328.8223" y2="145.8921" gradientTransform="matrix(1 0 0 -1 0 514)">
	<stop  offset="0" style="stop-color:#108C42"/>
	<stop  offset="1" style="stop-color:#0C843B"/>
</linearGradient>
<rect x="183.4" y="360.4" class="st10" width="145.5" height="15.3"/>
</svg>
